<svg fill="#FFFFFF" viewBox="0 0 64 64" x="0px" y="0px"><path d="M61.844,17.463l-7-11-.016.01A.982.982,0,0,0,54,6V2H52V6H51a1,1,0,0,0-1,1V17H26V15a1,1,0,0,0-1-1H19a1,1,0,0,0-1,1v2H14V7a1,1,0,0,0-1-1H12V2H10V6a.982.982,0,0,0-.828.473l-.016-.01-7,11,.016.01A.965.965,0,0,0,2,18v4a1,1,0,0,0,.757.97l4,1A1,1,0,0,0,7,24H9V49H6a1,1,0,0,0-.707.293l-2,2A1,1,0,0,0,3,52v4H2v2H62V56H55V24h1a1,1,0,0,0,.2-.02l5-1A1,1,0,0,0,62,22V18a.965.965,0,0,0-.172-.527ZM55,10.434,59.178,17H55ZM52,8h1v9H52ZM20,16h4v1H20ZM4.822,17,9,10.434V17ZM11,8h1v9H11ZM5,52.414,6.414,51H9v5H5ZM11,56V24h2V56Zm7-32v2a1,1,0,0,0,1,1h.919l-2.7,3.375a1,1,0,0,0-.127.215c0,.009-.011.016-.014.025a.991.991,0,0,0-.07.344c0,.015-.008.027-.008.041v8a1,1,0,0,0,1,1h8a1,1,0,0,0,1-1V31c0-.014-.008-.026-.008-.041a.991.991,0,0,0-.07-.344c0-.009-.01-.016-.014-.025a1,1,0,0,0-.127-.215L24.081,27H25a1,1,0,0,0,1-1V24H49V56H47V33a1,1,0,0,0-1-1H38a1,1,0,0,0-1,1v7H30a1,1,0,0,0-1,1v7H22a1,1,0,0,0-1,1v7H15V24Zm1,14V32h2v6Zm4-6h2v6H23Zm-1-2H20.081L22,27.6,23.919,30Zm-2-5V24h4v1ZM31,48V42h2v6Zm4-6h2v6H35Zm10-2H43V34h2Zm-4,0H39V34h2Zm-2,2h2v6H39Zm4,0h2v6H43ZM23,50h2v6H23Zm4,0h2v6H27Zm4,0h2v6H31Zm4,0h2v6H35Zm4,0h2v6H39Zm4,6V50h2v6Zm10,0H51V24h2Zm7-34.819L55.9,22H7.123L4,21.219V19H60Z"></path></svg>