<svg height='300px' width='300px'  fill="#FFFFFF" xmlns="http://www.w3.org/2000/svg" data-name="Layer 1" viewBox="0 0 100 100" x="0px" y="0px"><title>Boat Dock,Jetty,Pontoon,Boat Cleat,Boat Tie,Tie Up,Sea,Rope,Pier,Ocean,Nautical,Wharf</title><path d="M93.56,91.4l-7.32-2.93A20.68,20.68,0,0,0,78.52,87l.67-4.67a10.52,10.52,0,0,0-8.91-11.89l-1.72-.25,1.44-10a7.63,7.63,0,0,0-6.46-8.63l-1.77-.25,1-6.9a7.45,7.45,0,0,0-1.42-5.56,7.58,7.58,0,0,0-.75-.84,8,8,0,0,0,1.11-.7,7.91,7.91,0,1,0-10.18-.61,7.58,7.58,0,0,0-1,.6,7.45,7.45,0,0,0-2.93,4.94l-1,6.9-1.77-.25a7.62,7.62,0,0,0-8.63,6.47l-1.44,10L32.35,65A10.51,10.51,0,0,0,20.46,73.9L18.55,87.2a20.79,20.79,0,0,0-5.67,1.49L6.42,91.41a1.5,1.5,0,0,0,1.16,2.77L14,91.46a17.59,17.59,0,0,1,13.45-.12,20.62,20.62,0,0,0,15.38,0l.19-.08a17.62,17.62,0,0,1,13.15,0l.19.08a20.63,20.63,0,0,0,15.38,0l.19-.08a17.62,17.62,0,0,1,13.15,0l7.32,2.93a1.5,1.5,0,0,0,1.11-2.79ZM52.1,30.23A4.91,4.91,0,0,1,56.95,26a5,5,0,0,1,.71.05,4.9,4.9,0,1,1-5.55,4.16ZM50.59,42.61A4.5,4.5,0,0,1,55,38.75a4.54,4.54,0,0,1,.65,0l.28,0a4.5,4.5,0,0,1,3.82,5.09l-1,6.9L49.6,49.51ZM39.2,55.72a4.62,4.62,0,0,1,5.23-3.92l18.67,2.68A4.63,4.63,0,0,1,67,59.71l-1.44,10-27.83-4Zm37,26.17-.77,5.35a20.76,20.76,0,0,0-4.6,1.23l-.19.08a17.64,17.64,0,0,1-13.15,0l-.19-.08a20.62,20.62,0,0,0-15.38,0l-.19.08a17.63,17.63,0,0,1-13.15,0,20.67,20.67,0,0,0-7-1.46l1.83-12.77A7.51,7.51,0,0,1,31.93,68l37.93,5.44A7.52,7.52,0,0,1,76.22,81.89Z"></path></svg>