<svg fill="#FFFFFF" viewBox="0 0 64 64" x="0px" y="0px"><g><path d="M53,51H11a1,1,0,0,1-1-1V16a1,1,0,0,1,1-1H53a1,1,0,0,1,1,1V50A1,1,0,0,1,53,51ZM12,49H52V17H12Z"></path><path d="M53,17H11a1,1,0,0,1-.62-1.78l8.84-7A1,1,0,0,1,19.84,8H44.16a1,1,0,0,1,.62.22l8.84,7A1,1,0,0,1,53,17ZM13.87,15H50.13l-6.32-5H20.19Z"></path><path d="M16,47a1,1,0,0,1-1-1V41a1,1,0,0,1,2,0v5A1,1,0,0,1,16,47Z"></path><path d="M19,47a1,1,0,0,1-1-1V41a1,1,0,0,1,2,0v5A1,1,0,0,1,19,47Z"></path><path d="M22,47a1,1,0,0,1-1-1V41a1,1,0,0,1,2,0v5A1,1,0,0,1,22,47Z"></path><path d="M45,47a.84.84,0,0,1-.38-.08,1,1,0,0,1-.33-.21,1,1,0,0,1,0-1.42,1,1,0,0,1,.33-.21,1,1,0,0,1,1.09.21A1,1,0,0,1,45,47Z"></path><path d="M48,47a1.05,1.05,0,0,1-.71-.29l-.12-.15a.76.76,0,0,1-.09-.18A.64.64,0,0,1,47,46.2a1.5,1.5,0,0,1,0-.2,1,1,0,0,1,1.2-1,.64.64,0,0,1,.18.06l.18.09.15.12A1,1,0,0,1,48,47Z"></path><path d="M37,26H27a1,1,0,0,1-1-1V16a1,1,0,0,1,1-1H37a1,1,0,0,1,1,1v9A1,1,0,0,1,37,26Zm-9-2h8V17H28Z"></path><path d="M37,17H27a1,1,0,0,1-.8-.4,1,1,0,0,1-.16-.87l2-7A1,1,0,0,1,29,8h6a1,1,0,0,1,1,.73l2,7a1,1,0,0,1-.16.87A1,1,0,0,1,37,17Zm-8.67-2h7.34l-1.42-5h-4.5Z"></path></g></svg>