
<svg fill="#FFFFFF" x="0px" y="0px" viewBox="0 0 160 160" style="enable-background:new 0 0 160 160;" xml:space="preserve"><path d="M125,147.2l12.8-26.3l0,0c0.3-0.5,0.4-1.1,0.4-1.7V91.2V64c0-2.1-1.7-3.9-3.9-3.9H111V36.8c0-2.1-1.7-3.9-3.9-3.9h-9.4V22.6  h19.4v-7.8H93.9h-10V5h-7.8v9.9h-10H42.8v7.8h19.4V33h-9.4c-2.1,0-3.9,1.7-3.9,3.9v23.3H25.7c-2.1,0-3.9,1.7-3.9,3.9v27.2v28.1  c0,0.6,0.2,1.2,0.4,1.7l0,0L35,147.2H12.1v7.8h29.1h77.6h29.1v-7.8H125z M29.6,95h23.3H80h27.2h23.3v21.5c-32.6,11-68.2,11-100.9,0  V95z M56.7,67.9h19.4v19.4H56.7V67.9z M83.9,67.9h19.4v19.4H83.9V67.9z M130.4,67.9v19.4H111V67.9H130.4z M103.3,60.1H83.9V40.7h10  h9.4V60.1z M70,22.6h20V33H80H70V22.6z M56.7,40.7h9.4h10v19.4H56.7V40.7z M29.6,67.9H49v19.4H29.6V67.9z M43.6,147.2l-10.5-21.5  c15.3,4.5,31,6.8,46.8,6.8s31.6-2.3,46.8-6.8l-10.5,21.5H43.6z"></path></svg>