<svg fill="#FFFFFF" viewBox="0 0 32 32" x="0px" y="0px"><path d="M30.82,5.08a3.78,3.78,0,0,0-7.51-.56,14.67,14.67,0,1,0,5.21,5.39C29.52,8.48,30.82,6.35,30.82,5.08ZM27,2.3a2.79,2.79,0,0,1,2.78,2.78c0,1.18-1.75,3.79-2.78,5.19-1-1.39-2.79-4-2.79-5.19A2.79,2.79,0,0,1,27,2.3Zm2.32,15.24A13.52,13.52,0,0,1,27.2,24.4H22.57a22.53,22.53,0,0,0,1.2-6.86ZM21.55,24.4H16.26V17.54h6.51A21.73,21.73,0,0,1,21.55,24.4ZM2.16,17.54H7.75A22.53,22.53,0,0,0,9,24.4H4.32A13.52,13.52,0,0,1,2.16,17.54ZM15.26,9H10.12c1.19-3,3-5,5.15-5.33Zm0,1v6.51H8.74a22.32,22.32,0,0,1,1-6.51ZM7.74,16.54H2.17A13.51,13.51,0,0,1,4.1,10H8.73A23.1,23.1,0,0,0,7.74,16.54Zm1,1h6.51V24.4H10A21.73,21.73,0,0,1,8.75,17.54Zm6.51,7.86v4.67c-2-.26-3.69-2-4.88-4.67Zm1,0h4.88c-1.19,2.66-2.92,4.41-4.88,4.67Zm0-8.86V10h5.5a22.32,22.32,0,0,1,1,6.51Zm0-7.51V3.7C18.37,4,20.22,6,21.41,9ZM18.9,3.79a13.53,13.53,0,0,1,4.45,2A12.48,12.48,0,0,0,25,9H22.45A11.62,11.62,0,0,0,18.9,3.79Zm-6.3,0A11.64,11.64,0,0,0,9.07,9H4.77A13.64,13.64,0,0,1,12.61,3.8ZM5,25.4H9.34a10.27,10.27,0,0,0,3.95,5A13.62,13.62,0,0,1,5,25.4Zm13.21,5a10.27,10.27,0,0,0,3.95-5h4.3A13.62,13.62,0,0,1,18.24,30.42ZM29.36,16.54H23.78a23.1,23.1,0,0,0-1-6.51h2.84c.49.7.9,1.23,1,1.38l.39.5.39-.5.44-.58A13.53,13.53,0,0,1,29.36,16.54Z"></path><path d="M29.44,5A2.4,2.4,0,1,0,27,7.38,2.4,2.4,0,0,0,29.44,5Zm-3.8,0A1.4,1.4,0,1,1,27,6.38,1.4,1.4,0,0,1,25.64,5Z"></path></svg>