<svg fill="#FFFFFF" x="0px" y="0px" viewBox="0 0 70 70" style="enable-background:new 0 0 70 70;" xml:space="preserve"><g><g><path d="M58.3550339,32.6556473c-1.0917969,0-2.1494141-0.3671875-3.0048828-1.0625    c-1.1171875-0.9082031-1.7583008-2.2548828-1.7583008-3.6933594c0-0.5527344,0.4477539-1,1-1s1,0.4472656,1,1    c0,0.8339844,0.371582,1.6142578,1.0200195,2.1416016c0.6567383,0.5332031,1.4882812,0.7265625,2.3422852,0.5527344    c1.034668-0.2158203,1.8745117-1.0556641,2.0898438-2.0898438c0.347168-1.6650391-0.7670898-2.9785156-2.0449219-3.2851562    c-0.9711914-0.234375-1.6494141-1.0947266-1.6494141-2.0917969v-5.1542969c0-0.5527344,0.4477539-1,1-1s1,0.4472656,1,1v5.1542969    c0,0.0703125,0.0483398,0.1298828,0.1176758,0.1474609c2.5146484,0.6044922,4.0673828,3.0810547,3.534668,5.6376953    c-0.3754883,1.8017578-1.8383789,3.2636719-3.6396484,3.6386719    C59.0264206,32.6214676,58.6890182,32.6556473,58.3550339,32.6556473z"></path></g><g><g><path d="M29.1323795,60.9115067h-9.3666992c-0.5522461,0-1-0.4472656-1-1V18.0501785c0-0.5527344,0.4477539-1,1-1     s1,0.4472656,1,1v40.8613281h7.3666992V18.0501785c0-0.5527344,0.4477539-1,1-1s1,0.4472656,1,1v41.8613281     C30.1323795,60.464241,29.6846256,60.9115067,29.1323795,60.9115067z"></path></g><g><path d="M29.1323795,10.0501795c-0.5522461,0-1-0.4472656-1-1V4.0003743h-7.3666992v5.0498052c0,0.5527344-0.4477539,1-1,1     s-1-0.4472656-1-1V3.0003743c0-0.5527344,0.4477539-1,1-1h9.3666992c0.5522461,0,1,0.4472656,1,1v6.0498052     C30.1323795,9.6029139,29.6846256,10.0501795,29.1323795,10.0501795z"></path></g><g><path d="M33.0689011,68.0003738H15.8228092c-0.5522461,0-1-0.4472656-1-1V59.908577c0-0.5527344,0.4477539-1,1-1h17.2460918     c0.5522461,0,1,0.4472656,1,1v7.0917969C34.0689011,67.5531082,33.6211472,68.0003738,33.0689011,68.0003738z      M16.8228092,66.0003738h15.2460918V60.908577H16.8228092V66.0003738z"></path></g><g><path d="M29.1343327,60.9115067c-0.2705078,0-0.5400391-0.1083984-0.7368164-0.3232422L19.030817,50.3880692     c-0.3735352-0.4072266-0.3466797-1.0400391,0.0600586-1.4130859c0.4072266-0.375,1.0405273-0.3466797,1.4125977,0.0595703     l9.3666992,10.2001953c0.3740234,0.4072266,0.3466797,1.0400391-0.0600586,1.4130859     C29.6182194,60.8245926,29.3755436,60.9115067,29.1343327,60.9115067z"></path></g><g><path d="M29.1338444,41.1908035c-0.2539062,0-0.5083008-0.0957031-0.703125-0.2890625l-9.3666992-9.2597656     c-0.3925781-0.3876953-0.3964844-1.0214844-0.0078125-1.4140625c0.3876953-0.3935547,1.0214844-0.3974609,1.4140625-0.0078125     l9.3666992,9.2597656c0.3925781,0.3876953,0.3964844,1.0214844,0.0078125,1.4140625     C29.6494694,41.0921707,29.3916569,41.1908035,29.1338444,41.1908035z"></path></g><g><path d="M23.0127506,10.0501795c-0.2578125,0-0.515625-0.0986328-0.7109375-0.296875     c-0.3886719-0.3925781-0.3847656-1.0263672,0.0078125-1.4140625l6.1196289-6.0498052     c0.3930664-0.3896483,1.0268555-0.3857421,1.4140625,0.0078125c0.3886719,0.3925781,0.3847656,1.0263672-0.0078125,1.4140625     L23.7158756,9.761117C23.5210514,9.9544764,23.2666569,10.0501795,23.0127506,10.0501795z"></path></g><g><path d="M19.7656803,31.870491c-0.2578125,0-0.5161133-0.0996094-0.7114258-0.296875     c-0.3881836-0.3935547-0.3842773-1.0263672,0.0087891-1.4150391l8.6474609-8.5390625l-2.8857422-2.859375     c-0.3925781-0.3886719-0.3955078-1.0214844-0.0068359-1.4140625s1.0214844-0.3945312,1.4140625-0.0058594l3.6040039,3.5703125     c0.1899414,0.1875,0.2963867,0.4433594,0.2963867,0.7109375c0,0.2666016-0.1074219,0.5224609-0.2973633,0.7109375     l-9.3666992,9.25C20.2734928,31.7747879,20.0195866,31.870491,19.7656803,31.870491z"></path></g><g><path d="M19.7671452,50.5814285c-0.2578125,0-0.5151367-0.0986328-0.7109375-0.296875     c-0.3881836-0.3925781-0.3852539-1.0253906,0.0073242-1.4140625l9.3666992-9.2705078     c0.394043-0.3867188,1.0263672-0.3857422,1.4145508,0.0078125c0.3881836,0.3925781,0.3852539,1.0253906-0.0073242,1.4140625     l-9.3666992,9.2705078C20.2754459,50.4847488,20.0215397,50.5814285,19.7671452,50.5814285z"></path></g><g><path d="M67.0000534,19.0540848h-64c-0.5522461,0-1-0.4472656-1-1v-8.999999c0-0.5527344,0.4477539-1,1-1h64     c0.5522461,0,1,0.4472656,1,1v8.999999C68.0000534,18.6068192,67.5522995,19.0540848,67.0000534,19.0540848z      M4.0000548,17.0540848h62v-6.999999h-62V17.0540848z"></path></g><g><path d="M14.5034733,33.3421707H5.5396056c-0.5522461,0-1-0.4472656-1-1V18.0540848c0-0.5527344,0.4477539-1,1-1h8.9638672     c0.5522461,0,1,0.4472656,1,1v14.2880859C15.5034733,32.8949051,15.0557194,33.3421707,14.5034733,33.3421707z      M6.5396056,31.3421707h6.9638677V19.0540848H6.5396056V31.3421707z"></path></g></g><g><path d="M58.3496628,18.9730301c-0.5522461,0-1-0.4472656-1-1V9.8685389L29.0298405,4.0003743H19.940485L3.3398986,9.9945154    c-0.5205078,0.1894531-1.0932617-0.0810547-1.2802734-0.6005859c-0.1875-0.5195312,0.081543-1.0927734,0.6005859-1.2802734    l16.765625-6.0537114c0.109375-0.0390625,0.2241211-0.0595703,0.3398438-0.0595703h9.3666992    c0.0683594,0,0.1362305,0.0068359,0.203125,0.0205078l29.2172832,6.0537114    c0.4638672,0.0966797,0.796875,0.5058594,0.796875,0.9794922v8.9189444    C59.3496628,18.5257645,58.9019089,18.9730301,58.3496628,18.9730301z"></path></g></g></svg>