<svg fill="#1DA57A" xmlns:x="http://ns.adobe.com/Extensibility/1.0/" xmlns:i="http://ns.adobe.com/AdobeIllustrator/10.0/" xmlns:graph="http://ns.adobe.com/Graphs/1.0/" xmlns="http://www.w3.org/2000/svg" xmlns:xlink="http://www.w3.org/1999/xlink" version="1.1" x="0px" y="0px" viewBox="0 0 100 100" enable-background="new 0 0 100 100" xml:space="preserve"><metadata><sfw xmlns="http://ns.adobe.com/SaveForWeb/1.0/"><slices></slices><sliceSourceBounds height="68" width="16383" x="-8128" y="16" bottomLeftOrigin="true"></sliceSourceBounds><optimizationSettings><targetSettings targetSettingsID="0" fileFormat="GIFFormat"><GIFFormat transparency="true" lossy="0" matteColor="#FFFFFF" interlaced="false" noMatteColor="false" webShiftPercent="0" includeCaption="false" reductionAlgorithm="selective" ditherAlgorithm="diffusion" ditherPercent="100" numColors="256" rolloverMasterPalette="false" autoReduce="false"><colorTable isExact="false"></colorTable><lockedColors></lockedColors><colorShiftEntries></colorShiftEntries></GIFFormat></targetSettings></optimizationSettings></sfw></metadata><g><path d="M60,81h-8.5v-3.5c0-0.828-0.671-1.5-1.5-1.5s-1.5,0.672-1.5,1.5V81H40c-0.829,0-1.5,0.672-1.5,1.5S39.171,84,40,84h20   c0.828,0,1.5-0.672,1.5-1.5S60.828,81,60,81z"></path><path d="M50.477,32.65c-0.187-0.298-0.374-0.404-0.477-0.404s-0.291,0.106-0.477,0.405l-14.85,23.76   c-0.181,0.288-0.183,0.457-0.173,0.486C34.516,56.912,34.66,57,35,57h30c0.34,0,0.484-0.088,0.504-0.111   c0.005-0.021,0.003-0.19-0.177-0.479L50.477,32.65z M50,54c-0.69,0-1.25-0.56-1.25-1.25S49.31,51.5,50,51.5s1.25,0.56,1.25,1.25   S50.69,54,50,54z M51.5,49c0,0.829-0.671,1.5-1.5,1.5s-1.5-0.671-1.5-1.5V39c0-0.829,0.671-1.5,1.5-1.5s1.5,0.671,1.5,1.5V49z"></path><path d="M16,23.5v43h68.002L84,23.5H16z M67.251,57.862C66.85,58.585,66.029,59,65,59H35c-1.03,0-1.85-0.415-2.251-1.138   c-0.401-0.724-0.318-1.64,0.228-2.513l14.85-23.759c0.534-0.854,1.327-1.345,2.173-1.345s1.639,0.49,2.173,1.344l14.85,23.76   C67.568,56.224,67.651,57.139,67.251,57.862z"></path><path d="M87.5,16h-75c-2.206,0-4,1.794-4,4v50c0,2.206,1.794,4,4,4h75c2.206,0,4-1.794,4-4V20C91.5,17.794,89.706,16,87.5,16z    M86,66.5c0,1.103-0.897,2-2,2H16c-1.103,0-2-0.897-2-2v-43c0-1.103,0.897-2,2-2h68c1.103,0,2,0.897,2,2V66.5z"></path></g></svg>