<svg fill="#FFFFFF" x="0px" y="0px" viewBox="0 0 100 100"><g><g><path d="M73.2,92.5H20.5v-85h52.7c3.415,0,6.3,2.748,6.3,6v73C79.5,89.752,76.615,92.5,73.2,92.5z M22.5,90.5h50.7    c2.291,0,4.3-1.869,4.3-4v-73c0-2.131-2.009-4-4.3-4H22.5V90.5z"></path></g><g><rect x="29.003" y="21" width="40" height="2"></rect></g><g><rect x="33.003" y="77.375" width="32" height="4"></rect></g><g><rect x="34" y="25" width="31" height="2"></rect></g><g><path d="M61.008,51.18c1.374-3.245,0.534-8.174-1.356-10.396c-0.848,4.242-7.071,7.919-7.071,7.919s0.424-1.273-0.141-0.99    c-0.566,0.283-1.273-0.283-0.707-1.556c0.566-1.273,2.121-0.141,2.121-0.141l0.424-0.424c0.424-0.566-0.99-0.99-0.566-1.273    c0.424-0.283,1.556,0.424,1.556,0.424s0.141,0,0.283-0.848s-1.556-0.424-1.273-1.556s0.141-0.98-1.414-1.122    c-1.556-0.141-0.848,1.282-0.848,1.282h-0.141c-1.131,0-1.414-1.424-0.848-2.555c0.566-1.131-1.414-0.94-1.414-0.94L49.047,37.5    H48.96l-0.566,1.43c0,0-1.98,0.017-1.414,1.149c0.566,1.131,0.283,2.421-0.848,2.421H45.99c0,0,0.707-1.424-0.848-1.282    c-1.556,0.141-1.697,0.066-1.414,1.197c0.283,1.131-1.414,0.669-1.273,1.518c0.141,0.848,0.283,0.83,0.283,0.83    s1.131-0.717,1.556-0.434s-0.99,0.702-0.566,1.268l0.424,0.422c0,0,1.556-1.132,2.121,0.14c0.566,1.273-0.141,1.838-0.707,1.555    c-0.566-0.283-0.141,0.99-0.141,0.99s-6.222-3.677-7.071-7.919c-1.889,2.223-2.729,7.152-1.356,10.396    c-0.388,0.115-0.86,0.397-0.2,1.058c0.99,0.99,1.273,0.99,1.838,2.404c0.566,1.414,1.556,3.96,1.838,4.384    c0.027,0.041,0.059,0.101,0.096,0.176c-0.485,0.394-0.681,1.097,0.046,1.662c0.25,0.194,0.516,0.279,0.789,0.291    c0.234,0.512,0.461,0.927,0.625,0.981c0.335,0.112,0.58-0.482,0.461-1.223c0.763-0.321,1.48-0.834,1.943-0.757    c0.848,0.141-1.414,1.414-0.424,2.687c0.969,1.246,3.97,1.137,4.892,2.061c0.03,0.072,0.064,0.104,0.101,0.092    c0.037,0.013,0.071-0.019,0.101-0.092c0.922-0.924,3.923-0.815,4.892-2.061c0.99-1.273-1.273-2.545-0.424-2.687    c0.464-0.077,1.181,0.436,1.943,0.757c-0.119,0.741,0.126,1.335,0.461,1.223c0.164-0.055,0.392-0.469,0.625-0.981    c0.273-0.013,0.539-0.097,0.789-0.291c0.727-0.565,0.531-1.268,0.046-1.662c0.036-0.075,0.069-0.136,0.096-0.176    c0.283-0.424,1.273-2.97,1.838-4.384c0.566-1.414,0.848-1.414,1.838-2.404C61.869,51.578,61.396,51.295,61.008,51.18z     M43.304,56.057c-2.828,1.556,0.99,3.111,0.99,3.111s-1.414,0.424-2.404-0.141c-0.088-0.05-0.181-0.084-0.275-0.105    c-0.796-1.507-2.081-3.864-3.03-5.595c0.018,0.014,0.035,0.03,0.053,0.044c3.394,2.545,6.222,0.99,6.505,0.141    S46.132,54.501,43.304,56.057z M50.319,43.127c-0.141,0.848-1.273,3.212-1.273,3.212s-0.017,0.3-0.043,0.97    c-0.026-0.67-0.043-1.106-0.043-1.106s-1.131-2.205-1.273-3.054c-0.141-0.848,0.707-0.649,0.99-0.649c0.095,0,0.557,0,0.652,0    C49.612,42.5,50.461,42.278,50.319,43.127z M56.393,58.921c-0.095,0.021-0.187,0.055-0.275,0.105    c-0.99,0.566-2.404,0.141-2.404,0.141s3.818-1.556,0.99-3.111c-2.828-1.556-2.121-3.394-1.838-2.545    c0.283,0.848,3.111,2.404,6.505-0.141c0.018-0.014,0.035-0.03,0.053-0.044C58.474,55.058,57.189,57.415,56.393,58.921z"></path></g></g></svg>