<svg fill="#FFFFFF" x="0px" y="0px" viewBox="0 0 100 100" enable-background="new 0 0 100 100" xml:space="preserve"><path d="M94.057,97.167c1.273,0,2.307-1.03,2.307-2.306V37.65c0-1.273-1.032-2.305-2.307-2.305H79.895V18.868  c0-1.273-1.033-2.305-2.306-2.305h-7.13V7.306C70.459,6.033,69.428,5,68.152,5H31.7c-1.272,0-2.305,1.032-2.305,2.305v9.257h-7.129  c-1.273,0-2.305,1.032-2.305,2.305v16.477H5.637c-1.273,0-2.306,1.032-2.306,2.305v57.212c0,1.273,1.032,2.305,2.306,2.305   M19.961,92.559H7.942V39.955h12.019V92.559z M34.006,9.611H65.85v6.952H34.006V9.611z M58.025,92.061H41.83V81.199h16.195V92.061z   M75.122,92.559H62.635V78.895c0-1.272-1.031-2.306-2.305-2.306H39.525c-1.273,0-2.305,1.032-2.305,2.306v13.664H24.571V21.173  h50.712L75.122,92.559z M91.752,92.559H79.895V39.955h11.857V92.559z"></path><path d="M55.782,52.46c-0.533,0.714-0.533,1.114,0.447,1.604c-1.248,2.228-5.524,7.573-4.901-6.059h2.138  c1.516-0.179,1.471-2.496,0-2.496h-2.138v-1.916c1.87-0.624,3.163-2.361,3.163-4.411c0-2.583-2.05-4.633-4.633-4.633H49.59  c-2.495,0.089-4.455,2.094-4.455,4.634c0,2.049,1.292,3.786,3.163,4.41v1.917H46.16c-1.47,0-1.515,2.316,0,2.495h2.139  c0.892,13.632-3.564,8.332-4.901,6.059c0.98-0.49,0.98-0.89,0.446-1.604c-3.208-3.653-4.634-2.939-4.233,1.872  c0.089,0.803,0.535,1.068,1.559,0.713c4.233,8.376,13.5,8.376,17.286,0c1.025,0.355,1.471,0.09,1.561-0.713  C60.416,49.521,58.99,48.807,55.782,52.46L55.782,52.46z M49.858,41.055c-1.025,0-1.916-0.847-1.916-1.871  c0-1.025,0.802-1.783,1.782-1.872h0.044c1.026,0,1.916,0.802,1.916,1.872c0,0.979-0.802,1.781-1.782,1.871H49.858L49.858,41.055z"></path></svg>