<svg fill="#FFFFFF" viewBox="0 0 60 60" x="0px" y="0px"><title>002 - Shipping Container </title><desc>Created with Sketch.</desc><g stroke="none" stroke-width="1" fill="none" fill-rule="evenodd" stroke-linecap="round" stroke-linejoin="round"><g transform="translate(1.000000, 1.000000)" stroke="#FFFFFF" stroke-width="2"><rect x="0" y="0" width="12" height="10" rx="2"></rect><circle cx="6" cy="5" r="2"></circle><rect x="0" y="48" width="12" height="10" rx="2"></rect><circle cx="6" cy="53" r="2"></circle><rect x="46" y="0" width="12" height="10" rx="2"></rect><circle cx="52" cy="5" r="2"></circle><rect x="46" y="48" width="12" height="10" rx="2"></rect><circle cx="52" cy="53" r="2"></circle><rect x="3" y="10" width="6" height="38"></rect><rect x="12" y="2" width="34" height="6"></rect><rect x="49" y="10" width="6" height="38"></rect><rect x="12" y="50" width="34" height="6"></rect><path d="M18,8 L22,8 L22,13 C22,14.1045695 21.1045695,15 20,15 C18.8954305,15 18,14.1045695 18,13 L18,8 Z"></path><path d="M20,43 C21.1045695,43 22,43.8954305 22,45 L22,50 L18,50 L18,45 C18,43.8954305 18.8954305,43 20,43 Z"></path><path d="M20,15 L20,43"></path><path d="M20,21 L15,21"></path><path d="M20,37 L15,37"></path><path d="M38,8 C39.1045695,8 40,8.8954305 40,10 L40,15 L36,15 L36,10 C36,8.8954305 36.8954305,8 38,8 Z" transform="translate(38.000000, 11.500000) rotate(180.000000) translate(-38.000000, -11.500000) "></path><path d="M35.99999,43.00001 L39.99999,43.00001 L39.99999,48.00001 C39.99999,49.1045795 39.1045595,50.00001 37.99999,50.00001 C36.8954205,50.00001 35.99999,49.1045795 35.99999,48.00001 L35.99999,43.00001 Z" transform="translate(37.999990, 46.500010) rotate(-180.000000) translate(-37.999990, -46.500010) "></path><path d="M38,15 L38,43"></path><path d="M38,21 L43,21"></path><path d="M38,37 L43,37"></path><path d="M29,8 L29,50"></path></g></g></svg>