<svg fill="#FFFFFF" version="1.1" x="0px" y="0px" viewBox="0 0 16 16"><path d="M11.5,15h-4C7.224,15,7,14.776,7,14.5v-1C7,13.225,6.776,13,6.5,13S6,13.225,6,13.5v1C6,14.776,5.776,15,5.5,15h-4  C1.224,15,1,14.776,1,14.5v-4C1,10.224,1.224,10,1.5,10h1C2.776,10,3,9.775,3,9.5S2.776,9,2.5,9h-1C1.224,9,1,8.776,1,8.5v-4  C1,4.224,1.224,4,1.5,4H5V2.5C5,1.673,5.673,1,6.5,1S8,1.673,8,2.5V4h3.5C11.776,4,12,4.224,12,4.5V8h1.5C14.327,8,15,8.673,15,9.5  S14.327,11,13.5,11H12v3.5C12,14.776,11.776,15,11.5,15z M8,14h3v-3.5c0-0.276,0.224-0.5,0.5-0.5h2c0.275,0,0.5-0.225,0.5-0.5  S13.775,9,13.5,9h-2C11.224,9,11,8.776,11,8.5V5H7.5C7.224,5,7,4.776,7,4.5v-2C7,2.224,6.776,2,6.5,2S6,2.224,6,2.5v2  C6,4.776,5.776,5,5.5,5H2v3h0.5C3.327,8,4,8.673,4,9.5S3.327,11,2.5,11H2v3h3v-0.5C5,12.673,5.673,12,6.5,12S8,12.673,8,13.5V14z"></path></svg>