<svg fill="#FFFFFF" x="0px" y="0px" viewBox="0 0 24 24"><path d="M22.75,17.2988281h-0.9038086v-3.7041016c0-0.0986938-0.0215454-0.1920166-0.0562134-0.2783203  c0.034668-0.0863037,0.0562134-0.1796265,0.0562134-0.2783203V5.8007813c0-0.4140625-0.3359375-0.75-0.75-0.75H14.128418V4.1308594  c0-0.4140625-0.3359375-0.75-0.75-0.75s-0.75,0.3359375-0.75,0.75v6.7903442l-1.9560547-2.6331177  c-0.1416016-0.1904297-0.3647461-0.3027344-0.6020508-0.3027344H5.1088867c-0.4140625,0-0.75,0.3359375-0.75,0.75v3.1816406  l-3.3168945,0.9570313C0.7211914,12.9667969,0.5,13.2607422,0.5,13.5947266v4.4541016c0,0.4140625,0.3359375,0.75,0.75,0.75  h1.5303955c0.2571411,1.0422974,1.1997681,1.8203125,2.3284912,1.8203125s2.0713501-0.7780151,2.3284912-1.8203125h1.958252  c0.2571411,1.0422974,1.1997681,1.8203125,2.3284912,1.8203125s2.0716553-0.7780151,2.3289185-1.8203125H22.75  c0.4140625,0,0.75-0.3359375,0.75-0.75S23.1640625,17.2988281,22.75,17.2988281z M20.3461914,6.5507813v5.7373047H14.128418  V6.5507813H20.3461914z M2,14.1591797l3.3168945-0.9570313c0.3208008-0.0927734,0.5419922-0.3867188,0.5419922-0.7207031V9.4853516  h3.8344727l2.9350586,3.9512329v2.5903931c-0.2796021-0.1132202-0.5841064-0.1783447-0.9042969-0.1783447  c-0.9910889,0-1.8430176,0.5986328-2.2103882,1.4501953h-2.194458c-0.3673706-0.8515625-1.2192993-1.4501953-2.2103882-1.4501953  s-1.8430176,0.5986328-2.2103882,1.4501953H2V14.1591797z M5.1088867,19.1191406  c-0.4985352,0-0.9038086-0.3964844-0.9038086-0.8847656s0.4052734-0.8857422,0.9038086-0.8857422  s0.9038086,0.3974609,0.9038086,0.8857422S5.6074219,19.1191406,5.1088867,19.1191406z M11.7241211,19.1191406  c-0.4985352,0-0.9038086-0.3964844-0.9038086-0.8847656s0.4052734-0.8857422,0.9038086-0.8857422  s0.9042969,0.3974609,0.9042969,0.8857422S12.2226563,19.1191406,11.7241211,19.1191406z M14.128418,13.7880859h6.2177734v3.5107422  H14.128418V13.7880859z"></path></svg>