<svg fill="#FFFFFF" x="0px" y="0px" viewBox="0 0 90 90"><path d="M64.6357422,32.6884766C62.5224609,23.6210938,54.3818359,17.1162109,45,17.1162109  s-17.5224609,6.5048828-19.6357422,15.5722656C15.2753906,33.8339844,7.4785156,42.4873047,7.4785156,52.7128906  c0,11.1220703,9.0488281,20.1708984,20.171875,20.1708984h34.6992188c11.1230469,0,20.171875-9.0488281,20.171875-20.1708984  C82.5214844,42.4873047,74.7246094,33.8339844,64.6357422,32.6884766z M62.3496094,70.8837891H27.6503906  c-10.0195313,0-18.171875-8.1513672-18.171875-18.1708984c0-9.4375,7.3730469-17.3886719,16.7851563-18.1005859  c0.4492188-0.0341797,0.8203125-0.3642578,0.90625-0.8066406C28.8232422,25.2939453,36.3212891,19.1162109,45,19.1162109  s16.1767578,6.1777344,17.8300781,14.6894531c0.0859375,0.4423828,0.4570313,0.7724609,0.90625,0.8066406  c9.4121094,0.7119141,16.7851563,8.6630859,16.7851563,18.1005859  C80.5214844,62.7324219,72.3691406,70.8837891,62.3496094,70.8837891z"></path><path d="M53.5390625,50.6308594h-3.5644531v-8.7177734c0-0.5527344-0.4472656-1-1-1h-7.9492188c-0.5527344,0-1,0.4472656-1,1  v8.7177734h-3.5654297c-0.3779297,0-0.7236328,0.2128906-0.8935547,0.5498047  c-0.1699219,0.3378906-0.1347656,0.7421875,0.0898438,1.0449219l8.5400391,11.5302734  C44.3847656,64.0107422,44.6835938,64.1611328,45,64.1611328c0.3173828,0,0.6152344-0.1503906,0.8037109-0.4052734  l8.5390625-11.5302734c0.2246094-0.3027344,0.2597656-0.7070313,0.0898438-1.0449219  C54.2617188,50.84375,53.9169922,50.6308594,53.5390625,50.6308594z M45,61.4804688l-6.5546875-8.8496094h2.5800781  c0.5527344,0,1-0.4472656,1-1v-8.7177734h5.9492188v8.7177734c0,0.5527344,0.4472656,1,1,1h2.5791016L45,61.4804688z"></path><path d="M41.0253906,38.1533203h7.9492188c0.5527344,0,1-0.4472656,1-1s-0.4472656-1-1-1h-7.9492188c-0.5527344,0-1,0.4472656-1,1  S40.4726563,38.1533203,41.0253906,38.1533203z"></path></svg>