<svg viewBox="0 0 128 128">
  <path stroke="#000000" stroke-width="2" d="M65.3440559,29.4460235 L105.844056,45.6529469 C106.982814,46.1086449 107.729473,47.2116603 107.729473,48.4382128 L107.729473,79.1915323 C107.729473,80.4180848 106.982814,81.5211001 105.844056,81.9767981 L65.3440559,98.1837215 C64.6285812,98.4700337 63.8303656,98.4700337 63.1148909,98.1837215 L22.6148909,81.9767981 C21.4761326,81.5211001 20.7294734,80.4180848 20.7294734,79.1915323 L20.7294734,48.4382128 C20.7294734,47.2116603 21.4761326,46.1086449 22.6148909,45.6529469 L63.1148909,29.4460235 C63.8303656,29.1597113 64.6285812,29.1597113 65.3440559,29.4460235 Z"/>
  <path fill="#000000" d="M82.2442755,75 L84.1945875,63.939231 C84.386394,62.8514424 85.4237107,62.1251054 86.5114993,62.3169119 L88.4811149,62.6642082 C89.5689035,62.8560147 90.2952405,63.8933315 90.103434,64.9811201 L87.6723595,78.7684286 C87.5575491,79.4195511 87.1397995,79.9411686 86.5896182,80.2138907 C86.2241451,80.6917603 85.6480692,81 85,81 L51,81 C49.8954305,81 49,80.1045695 49,79 L49,77 C49,75.8954305 49.8954305,75 51,75 L82.2442755,75 Z M48.5784202,53 L47.1678044,61 L77.4162166,61 C78.5207861,61 79.4162166,61.8954305 79.4162166,63 L79.4162166,65 C79.4162166,66.1045695 78.5207861,67 77.4162166,67 L46.1098425,67 L43.9395654,79.3082531 C43.7477589,80.3960417 42.7104422,81.1223787 41.6226536,80.9305722 L39.653038,80.5832759 C38.5652494,80.3914694 37.8389124,79.3541526 38.0307189,78.266364 L43.2401642,48.7221314 C43.3784573,47.9378326 43.9562849,47.3414327 44.6756586,47.1415854 C44.9046986,47.0502349 45.1545911,47 45.4162166,47 L79.4162166,47 C80.5207861,47 81.4162166,47.8954305 81.4162166,49 L81.4162166,51 C81.4162166,52.1045695 80.5207861,53 79.4162166,53 L48.5784202,53 Z"/>
</svg>