<svg fill="#FFFFFF" x="0px" y="0px" viewBox="-5 -5 90 90" enable-background="new -5 -5 90 90"><path d="M174.789,65.7c-0.533,0-0.977,0.367-1.104,0.86l-21.818-24.598l-0.426-0.845c-0.02-0.087-0.047-0.173-0.089-0.257  l-10.72-21.296l2.035-4.042c0.284-0.563,0.057-1.251-0.507-1.535c-0.563-0.284-1.251-0.058-1.535,0.507l-1.272,2.528l-1.272-2.528  c-0.284-0.564-0.971-0.792-1.534-0.507c-0.564,0.284-0.791,0.971-0.508,1.534l2.035,4.042l-10.719,21.296  c-0.02,0.039-0.032,0.08-0.047,0.121l-0.592,1.176l-21.646,24.402c-0.127-0.493-0.57-0.86-1.104-0.86  c-0.632,0-1.144,0.512-1.144,1.143v5.63c0,0.631,0.512,1.143,1.144,1.143s1.143-0.512,1.143-1.143V69.96l17.599-19.839  l-10.613,21.086h-4.578c-0.632,0-1.144,0.512-1.144,1.143s0.512,1.143,1.144,1.143h20.41h22.826h2.011h17.73  c0.632,0,1.144-0.512,1.144-1.143s-0.512-1.143-1.144-1.143h-3.908l-10.712-21.28l17.771,20.033v2.513  c0,0.631,0.513,1.143,1.144,1.143c0.632,0,1.143-0.512,1.143-1.143v-5.63C175.932,66.212,175.421,65.7,174.789,65.7z   M129.783,71.207l9.559-18.99l9.558,18.99H129.783z M152.765,71.207h-1.307L140.362,49.16c-0.194-0.385-0.589-0.629-1.021-0.629  c-0.433,0-0.827,0.244-1.021,0.629l-11.096,22.047h-12.569l13.97-27.756l0.072-0.082c0.159-0.179,0.251-0.395,0.279-0.615  l10.364-20.593l24.687,49.046H152.765z"></path><g><path d="M-37.526,7.979c-0.552,0-1,0.448-1,1v67.188c0,0.553,0.448,1,1,1s1-0.447,1-1V8.979   C-36.526,8.427-36.974,7.979-37.526,7.979z"></path><path d="M-52.151,24.35c3.009,0,5.457-2.448,5.457-5.458c0-3.01-2.448-5.458-5.457-5.458c-3.01,0-5.458,2.448-5.458,5.458   C-57.609,21.901-55.161,24.35-52.151,24.35z M-52.151,15.434c1.906,0,3.457,1.551,3.457,3.458c0,1.906-1.551,3.458-3.457,3.458   c-1.907,0-3.458-1.551-3.458-3.458C-55.609,16.985-54.058,15.434-52.151,15.434z"></path><path d="M-50.152,26.795l-4.064,0.002c-1.462,0.094-6.332,0.538-7.607,2.331c-0.121,0.169-0.185,0.372-0.185,0.58v20.089   c0,0.553,0.448,1,1,1h1.321c0.025,0.002,0.047,0.015,0.073,0.015h1.125l2.057,22.354c0.047,0.515,0.479,0.908,0.996,0.908h6.57   c0.517,0,0.948-0.394,0.996-0.908l2.057-22.354h0.162c0.024,0,0.044-0.012,0.068-0.014h2.289c0.552,0,1-0.447,1-1v-20.09   c0-0.208-0.064-0.41-0.185-0.58C-43.754,27.336-48.625,26.891-50.152,26.795z M-49.778,72.074h-4.746l-1.957-21.263h8.66   L-49.778,72.074z M-44.295,48.798h-2.429c-0.025,0-0.047,0.012-0.072,0.014h-10.705c-0.026-0.002-0.05-0.015-0.077-0.015h-2.429   V30.108c0.835-0.619,3.585-1.165,5.856-1.313l3.936-0.002c2.33,0.15,5.085,0.696,5.92,1.315V48.798z"></path><path d="M-14.452,61.605l-4.209-18.229l3.576-13.413c0.077-0.288,0.021-0.594-0.151-0.837c-1.303-1.833-5.866-2.263-6.842-2.333   l-4.074,0.003c-0.901,0.067-5.464,0.496-6.768,2.33c-0.162,0.228-0.221,0.514-0.163,0.787l2.856,13.451l-3.688,18.457   c-0.059,0.294,0.017,0.599,0.207,0.83s0.474,0.366,0.773,0.366h3.075h0.894l2.227,10.268c0.1,0.46,0.506,0.788,0.977,0.788h3.409   c0.472,0,0.879-0.33,0.978-0.791l2.188-10.265h3.805c0.003,0,0.007,0,0.01,0c0.553,0.033,1.01-0.443,1.01-1   C-14.363,61.871-14.395,61.731-14.452,61.605z M-23.164,72.074h-1.793l-1.964-9.056h5.688L-23.164,72.074z M-19.997,61.019h-8.164   h-1.7h-1.855l3.489-17.463c0.027-0.134,0.026-0.271-0.002-0.404l-2.786-13.119c0.861-0.59,3.113-1.098,4.936-1.238l3.925-0.003   c1.871,0.142,4.105,0.642,4.985,1.223l-3.489,13.087c-0.042,0.158-0.045,0.323-0.008,0.482l4.026,17.435H-19.997z"></path><path d="M-24.078,24.35c3.009,0,5.457-2.448,5.457-5.458c0-3.01-2.448-5.458-5.457-5.458c-3.009,0-5.458,2.448-5.458,5.458   C-29.536,21.901-27.087,24.35-24.078,24.35z M-24.078,15.434c1.906,0,3.457,1.551,3.457,3.458c0,1.906-1.551,3.458-3.457,3.458   s-3.458-1.551-3.458-3.458C-27.536,16.985-25.984,15.434-24.078,15.434z"></path></g><g><path d="M-101.723,10.075c-0.415-0.415-1.086-0.415-1.5,0l-3.302,3.302c-0.062-0.113-0.14-0.22-0.244-0.308l-3.364-2.834   c-0.191-0.161-0.434-0.25-0.684-0.25h-9.13c-0.586,0-1.061,0.475-1.061,1.061v64.35c0,0.586,0.475,1.061,1.061,1.061   s1.061-0.475,1.061-1.061V12.107h7.682l3.067,2.584c0.059,0.049,0.128,0.071,0.192,0.105l-3.137,3.137   c-0.415,0.415-0.415,1.086,0,1.5c0.207,0.207,0.479,0.311,0.75,0.311s0.543-0.104,0.75-0.311l7.859-7.859   C-101.309,11.161-101.309,10.489-101.723,10.075z"></path><path d="M-105.799,23.954c0.735-0.729,0.74-1.921,0.011-2.655c-0.729-0.736-1.92-0.74-2.656-0.011   c-0.734,0.73-0.74,1.921-0.01,2.657C-107.725,24.679-106.535,24.684-105.799,23.954z M-107.697,22.041   c0.32-0.317,0.838-0.315,1.156,0.005c0.317,0.319,0.314,0.837-0.005,1.155c-0.32,0.317-0.838,0.315-1.155-0.004   C-108.019,22.877-108.017,22.359-107.697,22.041z"></path><path d="M-102.603,18.139c-0.729-0.735-1.921-0.741-2.656-0.011c-0.734,0.729-0.739,1.92-0.01,2.656   c0.729,0.735,1.92,0.74,2.655,0.01C-101.879,20.065-101.874,18.875-102.603,18.139z M-103.36,20.041   c-0.32,0.317-0.838,0.315-1.155-0.005s-0.315-0.838,0.003-1.155c0.32-0.317,0.838-0.315,1.156,0.005   C-103.039,19.206-103.041,19.724-103.36,20.041z"></path><path d="M-102.083,17.624c0.729,0.735,1.919,0.74,2.655,0.011c0.735-0.729,0.74-1.921,0.011-2.655   c-0.729-0.735-1.921-0.74-2.656-0.011C-102.808,15.698-102.813,16.889-102.083,17.624z M-101.327,15.722   c0.32-0.317,0.838-0.315,1.156,0.005c0.317,0.319,0.314,0.836-0.005,1.154c-0.32,0.316-0.838,0.314-1.154-0.005   C-101.647,16.557-101.646,16.039-101.327,15.722z"></path><path d="M-96.244,14.475c0.735-0.729,0.741-1.92,0.012-2.656c-0.729-0.735-1.921-0.74-2.656-0.011   c-0.735,0.73-0.74,1.921-0.011,2.656C-98.169,15.199-96.979,15.204-96.244,14.475z M-98.141,12.562   c0.32-0.317,0.838-0.315,1.155,0.005c0.317,0.319,0.315,0.837-0.004,1.155c-0.32,0.317-0.838,0.315-1.155-0.004   C-98.463,13.397-98.461,12.879-98.141,12.562z"></path><path d="M-104.559,28.339c0.734-0.729,0.74-1.92,0.01-2.656c-0.729-0.734-1.919-0.739-2.655-0.01   c-0.735,0.729-0.74,1.92-0.011,2.655C-106.485,29.064-105.294,29.069-104.559,28.339z M-106.456,26.427   c0.32-0.317,0.838-0.315,1.154,0.004c0.318,0.32,0.315,0.838-0.004,1.155c-0.32,0.318-0.838,0.315-1.155-0.005   C-106.777,27.262-106.776,26.744-106.456,26.427z"></path><path d="M-100.198,24.014c0.735-0.729,0.74-1.92,0.01-2.656c-0.728-0.735-1.919-0.739-2.654-0.01   c-0.736,0.729-0.741,1.92-0.012,2.655C-102.125,24.738-100.933,24.743-100.198,24.014z M-102.095,22.101   c0.32-0.317,0.837-0.315,1.155,0.004c0.317,0.32,0.315,0.838-0.005,1.155c-0.32,0.317-0.837,0.315-1.155-0.005   C-102.417,22.937-102.415,22.418-102.095,22.101z"></path><path d="M-98.874,17.41c-0.734,0.729-0.74,1.92-0.011,2.655s1.92,0.74,2.656,0.011c0.735-0.729,0.74-1.92,0.01-2.656   C-96.947,16.686-98.138,16.681-98.874,17.41z M-96.977,19.323c-0.319,0.317-0.837,0.315-1.154-0.004   c-0.317-0.32-0.315-0.838,0.005-1.155s0.838-0.315,1.154,0.004C-96.654,18.488-96.657,19.006-96.977,19.323z"></path><path d="M-92.221,16.1c0.736-0.729,0.741-1.921,0.012-2.656c-0.729-0.735-1.92-0.74-2.656-0.01c-0.734,0.729-0.74,1.919-0.01,2.655   C-94.146,16.824-92.956,16.829-92.221,16.1z M-94.118,14.188c0.32-0.318,0.839-0.316,1.155,0.002   c0.318,0.32,0.315,0.839-0.005,1.156c-0.319,0.317-0.837,0.314-1.155-0.005C-94.439,15.022-94.438,14.504-94.118,14.188z"></path><path d="M-103.016,29.581c-0.729-0.735-1.919-0.739-2.655-0.01c-0.735,0.729-0.74,1.92-0.012,2.655   c0.729,0.735,1.921,0.74,2.656,0.011C-102.291,31.507-102.287,30.316-103.016,29.581z M-103.774,31.483   c-0.319,0.317-0.837,0.314-1.155-0.005c-0.317-0.32-0.315-0.838,0.005-1.155c0.32-0.317,0.837-0.314,1.154,0.004   C-103.452,30.648-103.454,31.166-103.774,31.483z"></path><path d="M-98.067,24.671c-0.729-0.735-1.92-0.74-2.655-0.01c-0.735,0.729-0.741,1.92-0.011,2.655c0.729,0.734,1.92,0.74,2.656,0.01   C-97.343,26.598-97.337,25.406-98.067,24.671z M-98.824,26.573c-0.32,0.317-0.838,0.315-1.156-0.005   c-0.316-0.319-0.314-0.837,0.005-1.154c0.32-0.317,0.838-0.315,1.154,0.004C-98.502,25.738-98.504,26.256-98.824,26.573z"></path><path d="M-92.922,19.567c-0.729-0.735-1.92-0.739-2.655-0.01c-0.735,0.729-0.74,1.919-0.011,2.654   c0.729,0.735,1.92,0.741,2.655,0.012C-92.198,21.494-92.192,20.302-92.922,19.567z M-93.681,21.47   c-0.318,0.317-0.837,0.315-1.154-0.005c-0.316-0.319-0.314-0.837,0.004-1.154c0.32-0.318,0.839-0.315,1.156,0.003   C-93.357,20.634-93.36,21.153-93.681,21.47z"></path><path d="M-90.981,14.998c-0.735,0.729-0.74,1.92-0.011,2.655c0.73,0.735,1.921,0.74,2.656,0.011c0.735-0.73,0.74-1.921,0.011-2.656   C-89.055,14.273-90.246,14.269-90.981,14.998z M-89.083,16.91c-0.32,0.318-0.838,0.315-1.155-0.004   c-0.317-0.319-0.314-0.837,0.005-1.154c0.32-0.318,0.838-0.315,1.155,0.003C-88.761,16.075-88.764,16.593-89.083,16.91z"></path><path d="M-103.79,33.427c-0.735,0.729-0.74,1.92-0.01,2.655c0.729,0.735,1.92,0.74,2.655,0.011c0.735-0.729,0.74-1.919,0.011-2.655   C-101.863,32.703-103.054,32.698-103.79,33.427z M-101.892,35.34c-0.319,0.316-0.837,0.314-1.154-0.004   c-0.318-0.32-0.315-0.838,0.004-1.155c0.319-0.318,0.838-0.315,1.154,0.005C-101.57,34.504-101.572,35.023-101.892,35.34z"></path><path d="M-98.448,28.128c-0.735,0.73-0.74,1.921-0.011,2.656c0.729,0.734,1.919,0.739,2.655,0.01   c0.735-0.729,0.74-1.92,0.011-2.655C-96.522,27.405-97.713,27.4-98.448,28.128z M-96.551,30.041   c-0.32,0.318-0.838,0.315-1.155-0.003c-0.318-0.32-0.315-0.838,0.004-1.155c0.32-0.317,0.837-0.315,1.155,0.004   C-96.229,29.206-96.231,29.724-96.551,30.041z"></path><path d="M-92.127,21.858c-0.735,0.729-0.74,1.921-0.011,2.656c0.729,0.734,1.92,0.739,2.656,0.01c0.734-0.729,0.74-1.92,0.01-2.655   C-90.201,21.134-91.393,21.129-92.127,21.858z M-90.23,23.771c-0.32,0.317-0.838,0.315-1.154-0.004   c-0.318-0.32-0.315-0.838,0.004-1.155c0.32-0.317,0.838-0.315,1.155,0.005C-89.908,22.936-89.911,23.454-90.23,23.771z"></path><path d="M-84.484,16.921c-0.729-0.735-1.92-0.74-2.654-0.012c-0.735,0.729-0.74,1.921-0.011,2.656   c0.729,0.735,1.92,0.74,2.655,0.011S-83.755,17.656-84.484,16.921z M-85.242,18.823c-0.32,0.316-0.838,0.315-1.154-0.004   c-0.317-0.32-0.316-0.838,0.004-1.155s0.837-0.315,1.155,0.005C-84.92,17.988-84.922,18.506-85.242,18.823z"></path></g><path fill="#FFFFFF" stroke="#FFFFFF" stroke-width="0.25" stroke-miterlimit="10" d="M-192.709,37.275v1.021  c0,1.421,1.156,1.421,2.177,1.421c1.018,0,2.174,0,2.174-1.421v-1.021c0-4.657-3.474-8.448-7.74-8.448h-4.226v-0.563  c0-0.996-0.902-1.263-1.407-1.354v-1.248h2.667c1.242,0,1.242-1.137,1.242-1.97c0-0.832,0-1.969-1.242-1.969h-8.846  c-0.35,0-0.611,0.09-0.795,0.275c-0.332,0.334-0.326,0.871-0.324,1.496v0.198v0.203c-0.002,0.621-0.008,1.158,0.324,1.492  c0.184,0.188,0.445,0.275,0.795,0.275h2.791v1.229c-0.72,0.11-1.545,0.397-1.545,1.373v0.563h-3.287  c-1.559,0-1.559,1.774-1.559,2.355c0,0.584,0,2.357,1.559,2.357h13.853C-194.229,33.54-192.709,35.216-192.709,37.275z   M-211.021,31.183c0-1.646,0.537-1.87,1.07-1.87h3.774v-1.049c0-0.398,0.163-0.783,1.328-0.916l0.216-0.027v-2.145h-3.277  c-0.215,0-0.361-0.045-0.45-0.133c-0.187-0.19-0.185-0.635-0.185-1.146l0.004-0.206l-0.004-0.202c0-0.514-0.002-0.958,0.185-1.146  c0.089-0.091,0.235-0.136,0.45-0.136h8.846c0.646,0,0.752,0.371,0.752,1.483c0,1.114-0.105,1.485-0.752,1.485h-3.154v2.156  l0.211,0.029c1.055,0.146,1.195,0.538,1.195,0.901v1.049h4.714c3.999,0,7.251,3.572,7.251,7.962v1.021  c0,0.854-0.463,0.936-1.685,0.936c-1.228,0-1.688-0.082-1.688-0.936v-1.021c0-2.329-1.736-4.223-3.878-4.223h-13.853  C-210.484,33.052-211.021,32.83-211.021,31.183z"></path><path fill="#FFFFFF" stroke="#FFFFFF" stroke-width="0.25" stroke-miterlimit="10" d="M-184.114,45.328  c-0.735-0.176-1.491,0.285-1.669,1.016l-1.399,5.767h-7.089l-1.404-5.767c-0.174-0.73-0.939-1.194-1.668-1.016  c-0.739,0.182-1.195,0.928-1.013,1.668l3.313,13.644c0.15,0.621,0.704,1.052,1.342,1.052h2.773c0.068,0,0.137-0.006,0.199-0.014  c0.066,0.008,0.132,0.014,0.197,0.014h2.775c0.639,0,1.191-0.431,1.342-1.052l3.316-13.644  C-182.918,46.256-183.373,45.51-184.114,45.328z M-183.57,46.883l-3.314,13.64c-0.098,0.403-0.455,0.685-0.871,0.685h-2.775  c-0.053,0-0.104-0.009-0.154-0.018l-0.043-0.01l-0.042,0.01c-0.05,0.009-0.103,0.018-0.157,0.018h-2.773  c-0.412,0-0.771-0.281-0.867-0.685l-3.316-13.64c-0.117-0.48,0.178-0.965,0.659-1.082c0.474-0.115,0.964,0.188,1.077,0.658  l1.49,6.139h7.859l1.492-6.139c0.113-0.47,0.601-0.773,1.075-0.658C-183.752,45.918-183.455,46.402-183.57,46.883z"></path><path fill="#FFFFFF" stroke="#FFFFFF" stroke-width="0.25" stroke-miterlimit="10" d="M-193.002,59.42h2.074  c0.055,0,0.107,0.005,0.157,0.014l0.042,0.008l0.043-0.008c0.051-0.009,0.102-0.014,0.154-0.014h2.072l1.225-5.035h-6.987  L-193.002,59.42z M-188.842,58.932h-1.689c-0.065,0-0.131,0.006-0.197,0.018c-0.063-0.012-0.131-0.018-0.199-0.018h-1.687  l-0.987-4.06h5.746L-188.842,58.932z"></path><path fill="#FFFFFF" stroke="#FFFFFF" stroke-width="0.25" stroke-miterlimit="10" d="M-189.471,41.666  c-0.521-0.51-1.416-0.504-1.926,0.012c-0.258,0.258-0.396,0.598-0.396,0.962c0.002,0.362,0.145,0.706,0.406,0.962  c0.258,0.252,0.596,0.393,0.955,0.393c0.366,0,0.711-0.144,0.966-0.401c0.258-0.259,0.397-0.602,0.397-0.964  C-189.071,42.262-189.216,41.921-189.471,41.666z M-189.812,43.249c-0.327,0.331-0.901,0.331-1.231,0.007  c-0.167-0.166-0.262-0.385-0.262-0.619c0-0.232,0.092-0.452,0.256-0.615c0.162-0.168,0.381-0.262,0.617-0.262  c0.234,0,0.449,0.091,0.613,0.253c0.167,0.164,0.258,0.382,0.264,0.616C-189.555,42.862-189.65,43.082-189.812,43.249z"></path><path fill="#FFFFFF" stroke="#FFFFFF" stroke-width="0.25" stroke-miterlimit="10" d="M-189.471,44.539  c-0.519-0.511-1.416-0.508-1.926,0.01c-0.258,0.26-0.396,0.601-0.396,0.966c0.002,0.364,0.145,0.704,0.406,0.958  c0.258,0.254,0.596,0.396,0.955,0.396c0.366,0,0.711-0.146,0.967-0.406c0.257-0.257,0.396-0.599,0.396-0.961  C-189.071,45.136-189.216,44.795-189.471,44.539z M-189.812,46.119c-0.327,0.332-0.901,0.337-1.231,0.009  c-0.167-0.163-0.262-0.384-0.262-0.615c0-0.236,0.092-0.453,0.256-0.619c0.162-0.167,0.381-0.261,0.617-0.261  c0.234,0,0.449,0.092,0.613,0.256c0.167,0.162,0.258,0.38,0.264,0.615C-189.555,45.736-189.65,45.955-189.812,46.119z"></path><path fill="#FFFFFF" stroke="#FFFFFF" stroke-width="0.25" stroke-miterlimit="10" d="M-191.396,47.424  c-0.258,0.255-0.396,0.598-0.396,0.963c0.002,0.365,0.145,0.705,0.406,0.961c0.258,0.252,0.596,0.395,0.955,0.395  c0.366,0,0.711-0.145,0.966-0.406c0.258-0.256,0.397-0.599,0.397-0.963c-0.003-0.365-0.147-0.705-0.402-0.96  C-189.992,46.902-190.887,46.908-191.396,47.424z M-189.812,48.995c-0.327,0.329-0.901,0.333-1.231,0.006  c-0.167-0.164-0.262-0.382-0.262-0.614c0-0.236,0.092-0.455,0.256-0.623c0.162-0.163,0.381-0.256,0.617-0.256  c0.234,0,0.449,0.09,0.613,0.25c0.167,0.165,0.258,0.385,0.264,0.619C-189.555,48.609-189.65,48.828-189.812,48.995z"></path><g><path fill-rule="evenodd" clip-rule="evenodd" d="M11.753,47.241c-1.074-1.463-1.314-3.124-1.334-4.792   c-0.027-2.283,1.59-4.031,4.113-4.57c0.076-4.167,0.152-8.356,0.229-12.637c-0.777,0-1.511,0-2.244,0   c-3.344,0-5.578-2.211-5.583-5.554c-0.009-4.945,0.013-9.89-0.007-14.835C6.916,2.201,8.93-0.458,12.229-0.451   c18.79,0.042,37.58,0.02,56.371,0.022c3.214,0,5.625,2.414,5.625,5.619c0,4.739,0.001,9.478-0.001,14.216   c-0.001,3.373-2.472,5.836-5.85,5.836c-1.025,0-2.052,0-3.252,0c0,1.146-0.013,2.231,0.013,3.316   c0.005,0.144,0.17,0.367,0.309,0.414c2.015,0.681,3.165,2.064,3.451,4.168c0.101,0.731,0.257,1.462,0.27,2.197   c0.02,1.204-0.527,2.218-1.324,3.147c0.997,1.087,1.301,2.467,1.509,3.808c0.34,2.183-0.743,3.817-2.475,5.022   c-0.482,0.335-0.658,0.646-0.656,1.223c0.019,7.375,0.036,14.752-0.006,22.128c-0.011,1.493-0.085,3.032-0.457,4.466   c-0.716,2.766-2.524,4.72-5.16,5.849c-0.474,0.204-1.033,0.294-1.555,0.294c-12.156,0.015-24.313,0.013-36.468,0.012   c-3.368-0.001-6.462-2.608-7.197-6.182c-0.234-1.137-0.266-2.331-0.272-3.499c-0.029-4.656-0.017-9.312-0.003-13.969   c0.001-0.457-0.083-0.649-0.598-0.764c-1.83-0.405-3.083-1.519-3.609-3.34c-0.227-0.787-0.371-1.606-0.465-2.421   C10.256,49.639,10.732,48.354,11.753,47.241z M17.787,37.28c14.736-2.822,29.391-5.63,44.067-8.441   c0.105-2.31,0.205-4.561,0.307-6.855c0.315,0,0.54,0,0.765,0c1.874,0,3.749,0.008,5.625-0.001c1.36-0.006,2.437-1.068,2.438-2.419   c0.008-4.842,0.021-9.684-0.024-14.524c-0.004-0.501-0.301-1.064-0.617-1.481c-0.49-0.648-1.257-0.78-2.056-0.779   c-9.847,0.006-19.696,0.004-29.545,0.004c-8.797,0-17.595,0-26.393,0.001c-1.405,0-2.124,0.688-2.194,2.093   c-0.01,0.185-0.013,0.37-0.013,0.556c0,4.553,0,9.106,0.001,13.66c0,0.289-0.002,0.578,0.024,0.865   c0.125,1.351,0.862,2.023,2.214,2.025c1.442,0.001,2.884,0,4.327,0c0.427,0,0.854,0,1.341,0   C17.964,27.12,17.876,32.175,17.787,37.28z M18.376,56.906c-0.026,0.111-0.044,0.151-0.043,0.191   c0.017,5.375,0.043,10.751,0.05,16.127c0.003,2.523,1.884,4.918,5.102,4.888c11.083-0.108,22.17-0.089,33.252,0.004   c1.868,0.016,3.214-0.551,4.326-1.933c0.065-0.08,0.159-0.145,0.199-0.235c0.317-0.681,0.767-1.34,0.898-2.058   c0.197-1.064,0.225-2.171,0.228-3.26c0.017-7.025,0.009-14.052,0.009-21.077c0-0.22,0-0.438,0-0.753   C47.659,51.513,33.025,54.209,18.376,56.906z M56.435,46.154c2.788-0.516,5.475-1.002,8.157-1.515   c0.835-0.159,1.413-0.905,1.315-1.691c-0.081-0.652-0.206-1.304-0.381-1.935c-0.201-0.731-0.881-1.094-1.62-0.956   c-1.232,0.23-2.467,0.444-3.699,0.677c-1.062,0.199-2.121,0.41-3.162,0.613C56.837,42.979,56.643,44.523,56.435,46.154z    M33.262,37.621c-2.811,0.526-5.525,1.033-8.24,1.542c-0.204,1.623-0.399,3.182-0.593,4.733c0.119,0.022,0.162,0.043,0.198,0.036   c2.564-0.472,5.129-0.939,7.688-1.43c0.141-0.028,0.329-0.241,0.351-0.39C32.876,40.653,33.058,39.189,33.262,37.621z    M44.866,48.284c0.27-0.033,0.433-0.043,0.592-0.073c2.06-0.386,4.119-0.775,6.177-1.164c1.432-0.271,1.444-0.269,1.638-1.671   c0.153-1.113,0.274-2.23,0.416-3.396c-0.163,0.021-0.259,0.03-0.354,0.048c-2.221,0.417-4.441,0.832-6.663,1.251   c-1.188,0.225-1.199,0.227-1.356,1.38C45.155,45.835,45.021,47.016,44.866,48.284z M32.187,46.029c-0.158,0-0.22-0.01-0.28,0.001   c-2.526,0.467-5.053,0.928-7.574,1.419c-0.168,0.034-0.378,0.292-0.417,0.477c-0.124,0.603-0.181,1.22-0.255,1.832   c-0.101,0.843-0.194,1.687-0.296,2.576c2.655-0.498,5.2-0.97,7.74-1.467c0.188-0.036,0.469-0.232,0.492-0.388   C31.817,49.02,31.991,47.555,32.187,46.029z M45.92,39.972c2.702-0.505,5.304-0.985,7.899-1.489   c0.142-0.027,0.334-0.232,0.355-0.376c0.208-1.458,0.388-2.921,0.59-4.493c-2.787,0.518-5.498,1.023-8.229,1.531   C46.33,36.75,46.131,38.312,45.92,39.972z M57.5,37.742c2.476-0.39,4.851-0.744,7.217-1.153c0.799-0.138,1.304-0.976,1.178-1.779   c-0.079-0.507-0.18-1.013-0.291-1.514c-0.23-1.018-0.914-1.518-1.936-1.343c-1.741,0.299-3.476,0.639-5.21,0.982   c-0.138,0.028-0.335,0.191-0.354,0.314C57.889,34.729,57.702,36.214,57.5,37.742z M21.66,39.897   c-0.097-0.03-0.136-0.059-0.169-0.052c-2.261,0.424-4.526,0.828-6.78,1.289c-0.685,0.14-1.146,0.851-1.069,1.549   c0.074,0.672,0.2,1.345,0.375,1.998c0.19,0.709,0.855,1.092,1.57,0.959c1.678-0.311,3.355-0.619,5.026-0.966   c0.192-0.04,0.46-0.286,0.487-0.467C21.314,42.787,21.477,41.357,21.66,39.897z M34.932,50.117c0.22-0.011,0.344-0.001,0.463-0.023   c1.797-0.332,3.59-0.686,5.391-0.993c0.549-0.093,0.837-0.274,0.817-0.888c-0.013-0.444,0.117-0.894,0.174-1.342   c0.109-0.889,0.211-1.778,0.325-2.749c-2.179,0.406-4.255,0.789-6.327,1.192c-0.107,0.021-0.24,0.215-0.257,0.343   C35.314,47.119,35.131,48.583,34.932,50.117z M35.998,41.82c2.105-0.388,4.101-0.762,6.1-1.119c0.359-0.063,0.51-0.245,0.55-0.6   c0.126-1.122,0.274-2.241,0.41-3.362c0.039-0.31,0.067-0.621,0.106-0.97c-1.767,0.335-3.438,0.653-5.112,0.966   c-1.41,0.262-1.424,0.257-1.627,1.67C36.266,39.516,36.145,40.633,35.998,41.82z M20.598,48.21   c-1.932,0.283-3.76,0.534-5.582,0.825c-0.999,0.161-1.529,0.996-1.338,2c0.081,0.423,0.15,0.85,0.236,1.272   c0.224,1.09,0.905,1.581,2.003,1.403c1.034-0.168,2.053-0.433,3.091-0.55c0.758-0.084,1.079-0.354,1.129-1.152   C20.216,50.744,20.436,49.489,20.598,48.21z"></path></g></svg>