<svg fill="#FFFFFF" viewBox="0 0 100 100" x="0px" y="0px"><path d="M22,78.6666667 C21.1715729,78.6666667 20.5,77.9950938 20.5,77.1666667 C20.5,76.3382395 21.1715729,75.6666667 22,75.6666667 L77.5,75.6666667 C78.3284271,75.6666667 79,76.3382395 79,77.1666667 C79,77.9950938 78.3284271,78.6666667 77.5,78.6666667 L22,78.6666667 Z" fill="#FFFFFF" fill-rule="nonzero"></path><path d="M69.5,72.5 C68.6715729,72.5 68,71.8284271 68,71 C68,70.1715729 68.6715729,69.5 69.5,69.5 L86,69.5 C86.8284271,69.5 87.5,70.1715729 87.5,71 C87.5,71.8284271 86.8284271,72.5 86,72.5 L69.5,72.5 Z" fill="#FFFFFF" fill-rule="nonzero"></path><path d="M14,72.5 C13.1715729,72.5 12.5,71.8284271 12.5,71 C12.5,70.1715729 13.1715729,69.5 14,69.5 L62.5,69.5 C63.3284271,69.5 64,70.1715729 64,71 C64,71.8284271 63.3284271,72.5 62.5,72.5 L14,72.5 Z" fill="#FFFFFF" fill-rule="nonzero"></path><path d="M42.5,84.75 C41.6715729,84.75 41,84.0784271 41,83.25 C41,82.4215729 41.6715729,81.75 42.5,81.75 L71.5,81.75 C72.3284271,81.75 73,82.4215729 73,83.25 C73,84.0784271 72.3284271,84.75 71.5,84.75 L42.5,84.75 Z" fill="#FFFFFF" fill-rule="nonzero"></path><path d="M28.5,84.75 C27.6715729,84.75 27,84.0784271 27,83.25 C27,82.4215729 27.6715729,81.75 28.5,81.75 L36.5,81.75 C37.3284271,81.75 38,82.4215729 38,83.25 C38,84.0784271 37.3284271,84.75 36.5,84.75 L28.5,84.75 Z" fill="#FFFFFF" fill-rule="nonzero"></path><path d="M59.5,28 L35,28 L35,32.7663743 L43.4209109,39.3159717 C44.0748317,39.8245767 44.1926334,40.7669901 43.6840283,41.4209109 C43.1754233,42.0748317 42.2330099,42.1926334 41.5790891,41.6840283 L33.2288197,35.1893743 L24.9662036,42.1473668 C24.3325304,42.6809863 23.3862527,42.5998768 22.8526332,41.9662036 C22.3190137,41.3325304 22.4001232,40.3862527 23.0337964,39.8526332 L32,32.3021459 L32,26.5 C32,25.6715729 32.6715729,25 33.5,25 L59.8775095,25 L68.8161466,13.5119697 C69.4166855,12.7401507 70.5833145,12.7401507 71.1838534,13.5119697 L80.1838534,25.0788642 C80.3887517,25.3422017 80.5,25.6663386 80.5,26 L80.5,65 C80.5,65.8284271 79.8284271,66.5 79,66.5 C78.1715729,66.5 77.5,65.8284271 77.5,65 L77.5,28 L62.5,28 L62.5,65 C62.5,65.8284271 61.8284271,66.5 61,66.5 C60.1715729,66.5 59.5,65.8284271 59.5,65 L59.5,28 Z M76.3213442,25 L70,16.8757421 L63.6786558,25 L76.3213442,25 Z" fill="#FFFFFF" fill-rule="nonzero"></path><path d="M67.8786797,56 L60.4393398,48.5606602 C59.8535534,47.9748737 59.8535534,47.0251263 60.4393398,46.4393398 C61.0251263,45.8535534 61.9748737,45.8535534 62.5606602,46.4393398 L70,53.8786797 L76.9469138,46.9317658 C77.5327003,46.3459794 78.4824478,46.3459794 79.0682342,46.9317658 C79.6540206,47.5175522 79.6540206,48.4672997 79.0682342,49.0530862 L72.1213203,56 L79.5606602,63.4393398 C80.1464466,64.0251263 80.1464466,64.9748737 79.5606602,65.5606602 C78.9748737,66.1464466 78.0251263,66.1464466 77.4393398,65.5606602 L70,58.1213203 L62.5606602,65.5606602 C61.9748737,66.1464466 61.0251263,66.1464466 60.4393398,65.5606602 C59.8535534,64.9748737 59.8535534,64.0251263 60.4393398,63.4393398 L67.8786797,56 Z" fill="#FFFFFF" fill-rule="nonzero"></path><path d="M61.5,48 C60.6715729,48 60,47.3284271 60,46.5 C60,45.6715729 60.6715729,45 61.5,45 L78.5,45 C79.3284271,45 80,45.6715729 80,46.5 C80,47.3284271 79.3284271,48 78.5,48 L61.5,48 Z" fill="#FFFFFF" fill-rule="nonzero"></path><path d="M67.6607637,36.217916 L59.4393398,27.9964921 C58.8535534,27.4107057 58.8535534,26.4609582 59.4393398,25.8751718 C60.0251263,25.2893853 60.9748737,25.2893853 61.5606602,25.8751718 L69.782084,34.0965956 L77.4393398,26.4393398 C78.0251263,25.8535534 78.9748737,25.8535534 79.5606602,26.4393398 C80.1464466,27.0251263 80.1464466,27.9748737 79.5606602,28.5606602 L71.9034044,36.217916 L79.1248282,43.4393398 C79.7106147,44.0251263 79.7106147,44.9748737 79.1248282,45.5606602 C78.5390418,46.1464466 77.5892943,46.1464466 77.0035079,45.5606602 L69.782084,38.3392363 L62.5606602,45.5606602 C61.9748737,46.1464466 61.0251263,46.1464466 60.4393398,45.5606602 C59.8535534,44.9748737 59.8535534,44.0251263 60.4393398,43.4393398 L67.6607637,36.217916 Z" fill="#FFFFFF" fill-rule="nonzero"></path><path d="M22.5,42.5 L22.5,54.5 L45.5,54.5 L45.5,42.5 L22.5,42.5 Z M21,39.5 L47,39.5 C47.8284271,39.5 48.5,40.1715729 48.5,41 L48.5,56 C48.5,56.8284271 47.8284271,57.5 47,57.5 L21,57.5 C20.1715729,57.5 19.5,56.8284271 19.5,56 L19.5,41 C19.5,40.1715729 20.1715729,39.5 21,39.5 Z" fill="#FFFFFF" fill-rule="nonzero"></path><path d="M28,55.5 C28,56.3284271 27.3284271,57 26.5,57 C25.6715729,57 25,56.3284271 25,55.5 L25,45.5 C25,44.6715729 25.6715729,44 26.5,44 C27.3284271,44 28,44.6715729 28,45.5 L28,55.5 Z" fill="#FFFFFF" fill-rule="nonzero"></path><path d="M32.75,55.5 C32.75,56.3284271 32.0784271,57 31.25,57 C30.4215729,57 29.75,56.3284271 29.75,55.5 L29.75,45.5 C29.75,44.6715729 30.4215729,44 31.25,44 C32.0784271,44 32.75,44.6715729 32.75,45.5 L32.75,55.5 Z" fill="#FFFFFF" fill-rule="nonzero"></path><path d="M37.75,55.5 C37.75,56.3284271 37.0784271,57 36.25,57 C35.4215729,57 34.75,56.3284271 34.75,55.5 L34.75,45.5 C34.75,44.6715729 35.4215729,44 36.25,44 C37.0784271,44 37.75,44.6715729 37.75,45.5 L37.75,55.5 Z" fill="#FFFFFF" fill-rule="nonzero"></path><path d="M42.75,55.5 C42.75,56.3284271 42.0784271,57 41.25,57 C40.4215729,57 39.75,56.3284271 39.75,55.5 L39.75,45.5 C39.75,44.6715729 40.4215729,44 41.25,44 C42.0784271,44 42.75,44.6715729 42.75,45.5 L42.75,55.5 Z" fill="#FFFFFF" fill-rule="nonzero"></path></svg>