
<svg fill="#1DA57A" xmlns="http://www.w3.org/2000/svg" xmlns:xlink="http://www.w3.org/1999/xlink" version="1.1" x="0px" y="0px" viewBox="0 0 335.993 270.872" style="enable-background:new 0 0 335.993 270.872;" xml:space="preserve"><g><path d="M320.701,92.674l15.292-17.488c0,0-7.321-19.872-9.456-62.08l-69.576,79.568l-13.408,15.334l-21.568,24.666h63.74   l21.568-24.666L320.701,92.674z M306.694,53.662c4.095-4.684,9.394-6.747,11.838-4.61c2.443,2.138,1.105,7.663-2.99,12.347   c-4.098,4.687-9.396,6.752-11.842,4.614C301.256,63.876,302.596,58.347,306.694,53.662z"></path><polygon points="223.775,108.008 202.205,132.674 214.224,132.674 235.792,108.008 249.201,92.674 301.924,32.379 295.113,26.424    237.183,92.674  "></polygon><polygon points="205.842,108.008 184.273,132.674 196.291,132.674 217.86,108.008 231.268,92.674 283.737,32.67 276.926,26.715    219.25,92.674  "></polygon><polygon points="199.924,108.008 213.332,92.674 266.479,31.894 259.67,25.94 252.215,34.465 243.164,26.55 203.179,72.278    212.231,80.193 201.317,92.674 187.908,108.008 166.34,132.674 178.356,132.674  "></polygon><rect x="170.836" y="136.674" width="18.333" height="3.334"></rect><polygon points="189.682,146.674 191.02,150.008 200.836,150.008 200.836,146.674  "></polygon><rect x="227.502" y="146.674" width="22.334" height="3.334"></rect><path d="M170.223,150.008c0.029-1.15,0.266-2.275,0.67-3.334h-8.057v3.334H170.223z"></path><rect x="208.836" y="146.674" width="10.334" height="3.334"></rect><rect x="257.002" y="146.674" width="7.668" height="3.334"></rect><rect x="274.002" y="146.674" width="18.168" height="3.334"></rect><rect x="257.836" y="136.674" width="18.333" height="3.334"></rect><path d="M156.487,140.008h7.682v-3.334h-10.032C155.072,137.655,155.865,138.775,156.487,140.008z"></path><rect x="287.502" y="136.674" width="12" height="3.334"></rect><rect x="240.502" y="136.674" width="12" height="3.334"></rect><rect x="193.502" y="136.674" width="40.667" height="3.334"></rect><rect x="297.92" y="129.758" width="18.666" height="2"></rect><rect x="142.253" y="129.758" width="18.667" height="2"></rect><rect x="322.67" y="129.758" width="9.332" height="2"></rect><rect x="134.502" y="129.758" width="4.667" height="2"></rect><rect x="302.17" y="122.758" width="9.832" height="2"></rect><rect x="158.586" y="122.758" width="9.833" height="2"></rect><rect x="167.502" y="116.091" width="4.917" height="2"></rect><rect x="305.711" y="116.091" width="4.916" height="2"></rect><path d="M178.136,144.92c-2.948,1.183-4.378,4.53-3.196,7.477l19.394,48.343l-8.279,18.935h42.432l1.478-3.378l49.197-19.114   c2.96-1.149,4.427-4.482,3.277-7.442c-1.149-2.959-4.481-4.427-7.442-3.276l-49.191,19.112l-20.785-9.089l-19.406-48.372   C184.432,145.168,181.084,143.738,178.136,144.92z"></path><ellipse transform="matrix(0.4006 -0.9162 0.9162 0.4006 -33.1965 314.1842)" cx="223.541" cy="182.465" rx="16.171" ry="16.172"></ellipse><path d="M58.317,149.202l0.727-1.66l24.18-9.394c1.455-0.566,2.176-2.203,1.61-3.658c-0.565-1.455-2.202-2.176-3.657-1.611   l-24.178,9.395l-10.215-4.467l-9.537-23.774c-0.582-1.448-2.226-2.151-3.676-1.57c-1.449,0.581-2.15,2.228-1.57,3.675l9.531,23.76   l-4.068,9.306H58.317z"></path><ellipse transform="matrix(0.4007 -0.9162 0.9162 0.4007 -86.4529 129.6651)" cx="55.886" cy="130.915" rx="7.948" ry="7.948"></ellipse><path d="M80.974,260.507h58.144l-17.223-43.683l29.436-67.277c1.772-4.047-0.075-8.765-4.122-10.537   c-4.047-1.77-8.765,0.075-10.537,4.125l-29.432,67.269L77.877,221.98l-66.749-28.339c-4.065-1.727-8.762,0.172-10.49,4.238   c-1.727,4.067,0.173,8.764,4.238,10.49l66.708,28.321L80.974,260.507z"></path><ellipse transform="matrix(0.9303 -0.3668 0.3668 0.9303 -63.9434 43.401)" cx="82.228" cy="189.953" rx="22.5" ry="22.5"></ellipse><rect x="23.502" y="147.508" width="11" height="1.5"></rect><rect x="65.502" y="147.508" width="7.167" height="1.5"></rect><rect x="74.836" y="147.508" width="3.666" height="1.5"></rect><rect x="32.17" y="143.424" width="3.666" height="1.5"></rect><rect x="32.169" y="152.424" width="6.833" height="1.5"></rect><rect x="57.336" y="152.424" width="5" height="1.5"></rect><rect x="43.503" y="152.424" width="11" height="1.5"></rect><rect x="214.503" y="226.742" width="19.999" height="2.531"></rect><rect x="65.17" y="267.782" width="19.999" height="3.09"></rect><rect x="89.92" y="267.782" width="8.249" height="3.09"></rect><rect x="131.627" y="267.782" width="8.25" height="3.09"></rect><rect x="143.086" y="267.782" width="23.166" height="3.09"></rect><rect x="142.503" y="252.543" width="8.167" height="3.09"></rect><rect x="149.92" y="260.18" width="15.832" height="3.09"></rect><rect x="173.252" y="267.782" width="12" height="3.09"></rect><rect x="102.336" y="267.782" width="25.166" height="3.09"></rect><rect x="189.17" y="226.742" width="12.666" height="2.531"></rect><rect x="172.17" y="226.742" width="12.666" height="2.531"></rect><rect x="164.836" y="214.742" width="17" height="2.531"></rect><rect x="177.586" y="206.074" width="8.5" height="2.531"></rect><rect x="150.502" y="214.742" width="9.666" height="2.531"></rect><rect x="241.836" y="214.742" width="10" height="2.531"></rect><path d="M68.744,31.07c1.616-2.76,6.67-9.482,12.834-8.145c-6.561-7.385-13.932,3.889-13.932,3.889s-11.906-6.299-14.074,3.338   C58.32,26,65.994,29.437,68.744,31.07z"></path><path d="M97.102,43.263c1.615-2.76,6.67-9.482,12.834-8.144c-6.561-7.386-13.932,3.888-13.932,3.888s-11.907-6.3-14.074,3.338   C86.676,38.19,94.352,41.631,97.102,43.263z"></path><path d="M101.639,10.653c1.615-2.76,6.67-9.481,12.834-8.144c-6.561-7.388-13.932,3.889-13.932,3.889S88.634,0.097,86.467,9.736   C91.215,5.582,98.889,9.02,101.639,10.653z"></path></g></svg>