<svg fill="#FFFFFF" x="0px" y="0px" viewBox="0 0 128 128"><g><g><g><path d="M87.3,20.6c-0.2-0.7-0.5-1.3-0.9-1.8c-0.8-1.2-2.1-2.1-3.6-2.5c-0.5-0.2-1.1-0.2-1.7-0.2h-3.8v-0.5     C77.4,8.2,71.4,2.3,64.2,2.3H64c-3.7,0-7,1.5-9.4,3.8c-2.4,2.4-3.9,5.7-4,9.3V16h-3.8c-0.6,0-1.1,0.1-1.7,0.2     c-1.5,0.4-2.7,1.3-3.6,2.5c-0.4,0.6-0.7,1.2-0.9,1.8c-0.1,0.4-0.2,0.8-0.2,1.2v7.4c0,0.4,0.1,0.8,0.2,1.2     c0.8,2.7,3.1,4.5,5.9,4.6h34.8c2.8-0.1,5.2-2,5.9-4.6c0.1-0.4,0.2-0.8,0.2-1.1v-7.5C87.5,21.4,87.4,21,87.3,20.6z M71.1,16H56.9     v-0.6c0.1-3.8,3.2-6.8,7-6.8h0.3c3.8,0,6.9,3,7,6.8V16z"></path></g></g><path d="M111.7,94.1l0-1.2c0-2.9,0-5.9,0-8.8c0-6.9,0-1.2,0-8.1v-3.5c0-10.7,0-21.7,0-32.5c0-8.1-3.4-14-10-17.6   c-2.3-1.2-4.9-1.8-8.4-1.8h-1.8v8.5h0.4c1.2,0,2.1,0,3,0.1c4.5,0.3,8.4,4.1,8.6,8.5c0.2,4.3,0.2,8.8,0.2,12.8v34.5   c0,10.3,0,9.7,0,20.1c0,2.4,0,4.8-1.1,6.9c-1.9,3.6-4.7,5.4-8.5,5.4H64H34c-3.8,0-6.6-1.8-8.5-5.4c-1.1-2.1-1.1-4.5-1.1-6.9   c0-10.3,0-9.7,0-20.1V50.3c0-4,0-8.5,0.2-12.8c0.2-4.4,4.1-8.2,8.6-8.5c0.9-0.1,1.8-0.1,3-0.1h0.4v-8.5h-1.8   c-3.5,0-6.1,0.6-8.4,1.8c-6.7,3.6-10,9.6-10,17.6c0,10.8,0,21.9,0,32.5V76c0,6.9,0,1.2,0,8.1c0,2.9,0,5.9,0,8.8l0,1.2   c0,8.3,0,5.9,0.1,14.4c0.1,4.5,2,8.8,5.3,12.1c3.3,3.3,7.7,5.1,12.3,5.1H34c9.7,0,19.3-0.1,28.9-0.1h1h1c9.7,0,19.2,0,28.9,0.1h0.1   c4.6,0,8.9-1.8,12.3-5.1c3.3-3.3,5.2-7.6,5.3-12.1C111.8,99.9,111.8,102.3,111.7,94.1z"></path><g><g><path d="M75.2,94.2c-0.1-0.6-0.6-1.1-1.4-1.4c-1-0.4-2.1-0.7-3.1-1.1c-2.1-0.7-4.2-1.5-6.4-2.3c-0.7-0.3-1.4-0.2-2,0.3     c-0.5,0.4-0.7,1.1-0.5,1.8c0.1,0.2,0.1,0.5,0.2,0.8c0,0.2,0.1,0.4,0.1,0.7c0,0.2,0.1,0.5,0.1,0.7l0.2,1l-1-0.1     c-0.1,0-0.2,0-0.2,0c-0.1,0-0.3,0-0.4,0c-9-1.3-16.2-8.1-18-17c-0.3-1.6-0.4-3.2-0.4-4.9c0.2-5.9,2.7-11.3,7.1-15.2     c3.8-3.4,8.6-5.5,13.7-5.6c1.3,0,2.6,0,3.9,0.2c0.6,0.1,1.2,0.2,1.8,0.3c0.9,0.2,1.7-0.3,2-1.1c0.4-1-0.2-2.1-1.2-2.4     c-1.4-0.3-2.7-0.5-4.1-0.5c-4.4-0.1-8.4,0.5-11.9,2.1c-1.8,0.8-3.6,2-5.2,3.3l0,0c-1,0.8-1.9,1.7-2.8,2.6     C40.2,62.9,38,70,39.5,77.7c0.4,1.8,0.9,3.6,1.7,5.5c3,7.3,8.5,12.1,16.5,14.3c1.1,0.3,2.2,0.5,3.4,0.7c0.6,0.1,1.1,0.2,1.7,0.3     l0.5,0.1l0.1,0.5c0,0.2,0.1,0.5,0.1,0.7c0.1,0.3,0.1,0.5,0.2,0.8c0.1,0.4,0.1,0.7,0.2,1c0.2,0.8,0.6,1.3,1.2,1.5     c0.6,0.2,1.2,0,1.8-0.5c2.4-2.1,5-4.4,7.5-6.6C75.1,95.4,75.4,94.8,75.2,94.2z"></path><g><g><path d="M77.8,52c-0.7-0.4-1.5-0.2-2,0.6c-0.4,0.6-0.8,1.3-1.2,2c-0.2,0.4-0.3,0.8-0.2,1.2c0.1,0.3,0.2,0.5,0.5,0.7       c0.1,0,0.1,0.1,0.2,0.1c0.2,0.1,0.4,0.2,0.7,0.2c0.5,0,1-0.3,1.3-0.8l1.2-2c0.4-0.7,0.3-1.4-0.3-1.9       C77.9,52.1,77.9,52.1,77.8,52z"></path><path d="M80.3,61.5c0.2,0.2,0.5,0.3,0.8,0.3c0.3,0,0.7-0.1,1-0.4l1.8-1.5c0.7-0.6,0.8-1.4,0.3-2c-0.1-0.1-0.1-0.2-0.2-0.2       c-0.5-0.4-1.2-0.4-1.8,0.1c-0.6,0.5-1.2,1-1.8,1.5c-0.3,0.3-0.5,0.7-0.6,1.1c0,0.4,0.1,0.7,0.3,1       C80.2,61.4,80.3,61.5,80.3,61.5z"></path><path d="M83.3,66.5c-0.1,0.3-0.2,0.7,0,1c0.1,0.2,0.2,0.4,0.4,0.6c0.2,0.2,0.5,0.3,0.9,0.3c0.2,0,0.4,0,0.6-0.1l2.1-0.8       c0.8-0.3,1.2-1.1,0.9-1.8c-0.1-0.3-0.2-0.5-0.4-0.6c-0.4-0.3-0.9-0.4-1.4-0.2c-0.7,0.3-1.4,0.5-2.2,0.8       C83.8,65.9,83.4,66.2,83.3,66.5z"></path><path d="M88.9,73.3c-0.3-0.2-0.6-0.3-1-0.3c-0.7,0-1.5,0-2.3,0c-0.4,0-0.8,0.2-1.1,0.5c-0.2,0.3-0.4,0.6-0.4,1       c0,0.4,0.2,0.8,0.5,1c0.3,0.2,0.6,0.3,1,0.3h0l2.3,0c0.9,0,1.5-0.6,1.5-1.4C89.4,73.9,89.2,73.5,88.9,73.3z"></path><path d="M86.7,81.1c-0.7-0.2-1.4-0.5-2.2-0.7c-0.4-0.1-0.8-0.1-1.2,0.1c-0.3,0.2-0.6,0.4-0.7,0.8c-0.2,0.6,0,1.1,0.5,1.5       c0.1,0.1,0.3,0.2,0.5,0.3l2.2,0.7c0.2,0.1,0.4,0.1,0.6,0.1c0.6,0,1.1-0.3,1.3-0.9c0.2-0.6,0-1.1-0.4-1.5       C87.1,81.2,86.9,81.1,86.7,81.1z"></path><path d="M81.1,86.9c-0.4-0.3-0.8-0.4-1.2-0.3c-0.4,0-0.7,0.2-0.9,0.5c-0.5,0.6-0.3,1.5,0.3,2l0.1,0.1l0.2-0.3l-0.2,0.4l1.6,1.3       c0.3,0.2,0.6,0.4,1,0.4c0.4,0,0.8-0.2,1-0.5c0.5-0.6,0.4-1.5-0.3-2C82.3,87.8,81.7,87.4,81.1,86.9z"></path></g></g><path d="M76.8,70.7c0.1,0.6-0.4,1.2-0.9,1.4l-8.7,2.6c-0.7,1.5-2.2,2.6-4,2.6c-2.4,0-4.3-1.9-4.3-4.3c0-2.4,1.9-4.3,4.3-4.3     c1.3,0,2.4,0.6,3.2,1.4l9-0.6C76.2,69.4,76.8,69.9,76.8,70.7z"></path></g></g></g></svg>