<svg fill="#FFFFFF" x="0px" y="0px" viewBox="0 0 512 512"><g><path d="M452.6,247.8V215h-37.2L289.9,65.9c4.4-6.6,7.1-14.4,7.1-22.9c0-22.6-18.4-41-41-41s-41,18.4-41,41   c0,8.5,2.6,16.4,7.1,22.9L96.5,215H59.4v32.8H2V510h508V247.8H452.6z M436.3,247.8h-49.2v-16.4h49.2V247.8z M256,18.4   c13.6,0,24.6,11,24.6,24.6s-11,24.6-24.6,24.6s-24.6-11-24.6-24.6S242.4,18.4,256,18.4z M233.9,77.3c6.4,4.1,14,6.6,22.1,6.6   s15.7-2.5,22.1-6.6L394.1,215h-23.4v32.8H141.3V215h-23.4L233.9,77.3z M75.7,231.4h49.2v16.4H75.7V231.4z M493.6,493.6H18.4V264.2   h475.2V493.6z"></path><rect x="247.8" y="297" width="16.4" height="163.9"></rect><rect x="165.9" y="297" width="16.4" height="163.9"></rect><rect x="83.9" y="297" width="16.4" height="163.9"></rect><rect x="411.7" y="297" width="16.4" height="163.9"></rect><rect x="329.7" y="297" width="16.4" height="163.9"></rect></g></svg>