<svg fill="#FFFFFF" x="0px" y="0px" viewBox="0 0 32 32"><path d="M8,23c0-0.6-0.4-1-1-1h0c-0.6,0-1,0.4-1,1s0.5,1,1,1C7.6,24,8,23.6,8,23z"></path><path d="M25,20h-3h-2c-1.7,0-3-1.3-3-3s1.3-3,3-3h2h3c0.1,0,0.2,0,0.4-0.1c0,0,0.1,0,0.1-0.1c0,0,0.1,0,0.1-0.1  C26,13.5,30,10.4,30,7c0-2.8-2.2-5-5-5s-5,2.2-5,5c0,1.9,1.3,3.7,2.4,5H22h-2c-2.8,0-5,2.2-5,5s2.2,5,5,5h2h3c1.7,0,3,1.3,3,3  s-1.3,3-3,3h-3h-3H9.6c1.2-1.3,2.4-3.1,2.4-5c0-2.8-2.2-5-5-5s-5,2.2-5,5c0,3.4,3.9,6.5,4.4,6.8c0,0,0.1,0,0.1,0.1  c0,0,0.1,0,0.1,0.1C6.8,30,6.9,30,7,30h12h3h3c2.8,0,5-2.2,5-5S27.8,20,25,20z M25,4c1.7,0,3,1.3,3,3c0,1.7-1.8,3.7-3,4.7  c-1.2-1-3-3-3-4.7C22,5.3,23.3,4,25,4z M4,23c0-1.7,1.3-3,3-3s3,1.3,3,3c0,1.7-1.8,3.7-3,4.7C5.8,26.7,4,24.7,4,23z"></path><path d="M26,7c0-0.6-0.4-1-1-1h0c-0.6,0-1,0.4-1,1s0.5,1,1,1C25.6,8,26,7.6,26,7z"></path></svg>