<svg fill="#1DA57A" xmlns="http://www.w3.org/2000/svg" xmlns:xlink="http://www.w3.org/1999/xlink" version="1.0" x="0px" y="0px" viewBox="0 0 100 100" enable-background="new 0 0 100 100" xml:space="preserve"><path d="M85.469,66.016c1.154,0.627,1.938,1.85,1.938,3.255c0,0.471-0.088,0.922-0.248,1.337H13.989L6.439,59.84  c-0.422-0.602-0.669-1.333-0.669-2.123c0-0.803,0.256-1.546,0.69-2.152h21.7l2.573,2.573h43.839l9.085-5.245h10.328L85.469,66.016  L85.469,66.016z M63.877,39.438h12.75v6.8h-12.75V39.438L63.877,39.438z M33.276,48.788h12.75v6.8h-12.75V48.788L33.276,48.788z   M48.576,48.788h12.75v6.8h-12.75V48.788L48.576,48.788z M63.877,48.788h12.75v5.219l-2.739,1.581H63.877V48.788L63.877,48.788z   M33.276,39.438h12.75v6.8h-12.75V39.438L33.276,39.438z M48.576,39.438h12.75v6.8h-12.75V39.438L48.576,39.438z M13.255,37.8  h10.658h2.942v2.55h-2.942v12.664H10.705V42.05v-1.7V37.8v-2.55V32.7h5.692v-2.01l7.516-3.09v5.1h2.942v2.55h-3.792h-9.808V37.8  L13.255,37.8z"></path></svg>