<svg fill="#FFFFFF" x="0px" y="0px" viewBox="0 -96.833 203.167 196.833" enable-background="new 0 -96.833 203.167 196.833" xml:space="preserve"><path d="M169.679,45.36c-3.221,0.778-5.711,1.784-7.679,2.839c6.104-8.094,10.66-17.227,13.769-26.043  c0.101,0.084,0.229,0.178,0.419,0.287c2.153,1.206,6.736,1.312,12.559-2.358c5.623-3.546,8.786-9.61,10.179-12.934  c-3.563-0.184-10.379,0.044-16.058,3.623c-2.109,1.333-3.657,2.672-4.797,3.947c0.797-2.947,1.441-5.816,1.907-8.533  c0.027-0.157-0.006-0.306-0.012-0.457c1.756-1.152,4.073-3.805,5.272-9.116c1.353-5.98-0.454-11.888-1.729-15.016  c-2.482,2.273-6.678,6.856-8.024,12.807c-1.182,5.235-0.416,8.548,0.655,10.364c-0.126,0.216-0.228,0.45-0.274,0.711  c-0.923,5.377-2.532,11.346-4.812,17.413c0.049-1.024,0.049-2.124-0.03-3.323c-0.508-7.646-5.007-14.123-7.5-17.163  c-2.057,3.299-5.664,10.277-5.152,18c0.613,9.267,4.503,12.14,5.68,12.802c0.86,0.481,1.403,0.487,1.552,0.477  c0.202-0.012,0.479-0.11,0.797-0.285c-5.096,9.857-12.16,19.183-21.353,25.895c1.506-2.262,2.893-5.337,3.836-9.476  c2.248-9.849-1.229-19.629-3.09-23.87c-3.49,2.976-10.855,10.241-13.117,20.176c-2.724,11.931,1.323,17.197,3.459,18.505  c-8.261,3.85-17.07,5.201-26.346,4.049c0.782-0.304,1.561-0.587,2.346-0.919c0.072-0.03,0.144-0.066,0.208-0.104  c0.915-0.513,1.318-1.642,0.899-2.632c-0.451-1.059-1.673-1.556-2.733-1.107c-3.017,1.279-5.992,2.313-8.928,3.116  c-2.935-0.803-5.909-1.837-8.926-3.116c-1.062-0.448-2.283,0.049-2.733,1.107c-0.419,0.99-0.016,2.119,0.897,2.632  c0.065,0.037,0.138,0.073,0.208,0.104c0.786,0.332,1.564,0.615,2.347,0.919c-9.274,1.152-18.085-0.199-26.345-4.049  c2.136-1.308,6.184-6.574,3.46-18.505c-2.263-9.935-9.627-17.2-13.117-20.176c-1.861,4.241-5.338,14.021-3.09,23.87  c0.943,4.139,2.33,7.214,3.836,9.476c-9.192-6.712-16.256-16.038-21.352-25.895c0.317,0.175,0.595,0.273,0.796,0.285  c0.148,0.01,0.692,0.004,1.552-0.477c1.177-0.662,5.066-3.535,5.679-12.802c0.511-7.723-3.095-14.701-5.152-18  c-2.493,3.041-6.992,9.518-7.499,17.163c-0.08,1.199-0.08,2.299-0.031,3.323c-2.281-6.067-3.89-12.036-4.812-17.413  c-0.047-0.261-0.149-0.495-0.275-0.711c1.071-1.816,1.837-5.129,0.656-10.364c-1.346-5.95-5.541-10.534-8.023-12.807  c-1.274,3.128-3.081,9.036-1.729,15.016c1.2,5.311,3.518,7.963,5.272,9.116c-0.006,0.151-0.039,0.3-0.012,0.457  c0.466,2.716,1.11,5.586,1.908,8.533c-1.141-1.274-2.688-2.614-4.797-3.947C14.621,7.195,7.807,6.967,4.242,7.151  c1.393,3.324,4.556,9.388,10.179,12.934c5.823,3.67,10.404,3.564,12.557,2.358c0.192-0.109,0.318-0.203,0.42-0.287  c3.108,8.816,7.664,17.949,13.768,26.043c-1.967-1.056-4.458-2.061-7.678-2.839c-9.808-2.375-19.657,0.982-23.897,2.77  c2.978,3.561,10.191,11.019,19.987,13.381c8.61,2.081,13.624,0.301,15.844-0.943c2.123-1.191,2.925-2.507,3.053-3.04  c0.063-0.257,0.075-0.583,0.037-0.945c4.041,3.967,8.548,7.482,13.607,10.246c2.848,1.557,5.759,2.831,8.724,3.823  c-2.623,0.562-5.972,1.853-9.982,4.597c-0.764,0.523-1.521,1.097-2.249,1.708c-6.896,5.796-10.35,13.968-11.7,17.898  c4.629,0.176,15.002-0.184,23.335-5.888c1.022-0.696,1.983-1.428,2.86-2.165c7.268-6.105,7.772-11.883,7.08-13.99  c6.872,0.918,14.021,0.401,21.396-1.486c7.376,1.888,14.523,2.404,21.397,1.486c-0.692,2.107-0.187,7.885,7.079,13.99  c0.878,0.737,1.84,1.469,2.862,2.165c8.334,5.704,18.706,6.063,23.336,5.888c-1.352-3.931-4.805-12.103-11.701-17.898  c-0.727-0.611-1.484-1.185-2.249-1.708c-4.012-2.744-7.359-4.034-9.982-4.597c2.965-0.992,5.874-2.267,8.725-3.823  c5.06-2.764,9.565-6.279,13.606-10.246c-0.038,0.362-0.027,0.688,0.037,0.945c0.128,0.533,0.93,1.849,3.053,3.04  c2.22,1.244,7.234,3.024,15.846,0.943c9.796-2.362,17.009-9.82,19.986-13.381C189.336,46.342,179.486,42.985,169.679,45.36z"></path><path d="M122.444-8.314c-1.867,2.491-1.867,3.891,1.558,5.604c-4.36,7.784-19.304,26.465-17.125-21.171l7.472,0  c5.293-0.624,5.138-8.719,0-8.719h-7.472v-6.695c6.539-2.18,11.054-8.251,11.054-15.412c0-9.029-7.161-16.19-16.191-16.19h-0.934  c-8.718,0.311-15.567,7.316-15.567,16.191c0,7.161,4.514,13.231,11.054,15.413v6.694h-7.475c-5.137,0-5.292,8.096,0,8.719h7.475  C99.405,23.756,83.837,5.232,79.165-2.707c3.426-1.714,3.426-3.113,1.559-5.605c-11.209-12.767-16.192-10.275-14.79,6.54  c0.312,2.802,1.866,3.735,5.448,2.49c14.791,29.267,47.171,29.267,60.404,0c3.58,1.245,5.137,0.313,5.448-2.49  C138.635-18.587,133.653-21.081,122.444-8.314L122.444-8.314z M101.739-48.167c-3.581,0-6.693-2.958-6.693-6.539  c0-3.581,2.802-6.227,6.228-6.539h0.155c3.58,0,6.693,2.803,6.693,6.539c0,3.426-2.803,6.227-6.227,6.539H101.739L101.739-48.167z"></path></svg>