<svg fill="#FFFFFF" viewBox="0 0 64 64" x="0px" y="0px"><title>Asset 17</title><g data-name="Layer 2"><g data-name="Layer 1"><path d="M32,3.56A28.44,28.44,0,0,1,60.44,32h0A28.44,28.44,0,0,1,32,60.44h0A28.44,28.44,0,0,1,3.56,32h0A28.44,28.44,0,0,1,32,3.56h0M32,0A32,32,0,1,0,64,32,32,32,0,0,0,32,0Z"></path><path d="M46.4,40.48a1.78,1.78,0,0,0-2.4.75c0,.06-2.71,5-10.22,5.73V30.21h6.48a1.78,1.78,0,0,0,0-3.56H33.78v-4.2a6.17,6.17,0,1,0-3.56,0v4.2H23.74a1.78,1.78,0,1,0,0,3.56h6.48V47c-7.41-.69-10.11-5.52-10.22-5.73a1.78,1.78,0,0,0-3.16,1.65c.16.29,3.72,6.91,13.38,7.65v1.32a1.78,1.78,0,0,0,3.56,0V50.53c9.66-.74,13.22-7.36,13.38-7.65A1.78,1.78,0,0,0,46.4,40.48Zm-17-23.94A2.62,2.62,0,1,1,32,19.16,2.62,2.62,0,0,1,29.38,16.54Z"></path></g></g></svg>