<svg fill="#FFFFFF" x="0px" y="0px" viewBox="0 0 512 512" style="enable-background:new 0 0 512 512;" xml:space="preserve"><g><g><g><path d="M395.37,387.811H116.63c-37.773,0-68.504-30.73-68.504-68.504v-59.054c0-2.609,2.115-4.725,4.725-4.725h406.299     c2.609,0,4.725,2.115,4.725,4.725v59.054C463.874,357.08,433.144,387.811,395.37,387.811z M57.575,264.978v54.329     c0,32.563,26.492,59.056,59.055,59.056h278.74c32.563,0,59.055-26.492,59.055-59.056v-54.329H57.575z"></path></g><g><path d="M251.275,426.551c-2.609,0-4.724-2.114-4.724-4.724v-71.812H170.96v71.812c0,2.609-2.115,4.724-4.724,4.724     c-2.609,0-4.725-2.114-4.725-4.724v-76.536c0-2.609,2.115-4.724,4.725-4.724h85.039c2.609,0,4.725,2.114,4.725,4.724v76.536     C256,424.437,253.885,426.551,251.275,426.551z"></path></g><g><path d="M336.315,426.551c-2.61,0-4.725-2.114-4.725-4.724v-71.812H256v71.812c0,2.609-2.115,4.724-4.725,4.724     c-2.609,0-4.724-2.114-4.724-4.724v-76.536c0-2.609,2.115-4.724,4.724-4.724h85.04c2.609,0,4.724,2.114,4.724,4.724v76.536     C341.039,424.437,338.925,426.551,336.315,426.551z"></path></g><g><path d="M421.354,426.551c-2.609,0-4.725-2.114-4.725-4.724v-71.812h-75.591v71.812c0,2.609-2.114,4.724-4.724,4.724     c-2.61,0-4.725-2.114-4.725-4.724v-76.536c0-2.609,2.114-4.724,4.725-4.724h85.039c2.609,0,4.725,2.114,4.725,4.724v76.536     C426.079,424.437,423.964,426.551,421.354,426.551z"></path></g><g><path d="M374.11,264.978H90.646c-2.609,0-4.724-2.115-4.724-4.725v-56.694c0-2.609,2.115-4.725,4.724-4.725h236.221     c0.856,0,1.696,0.233,2.431,0.673l47.244,28.346c1.423,0.854,2.294,2.392,2.294,4.051v28.348     C378.835,262.862,376.72,264.978,374.11,264.978z M95.37,255.528h274.016v-20.948l-43.828-26.297H95.37V255.528z"></path></g><g><path d="M298.52,208.284H109.543c-2.609,0-4.725-2.116-4.725-4.725v-47.244c0-2.609,2.115-4.725,4.725-4.725H298.52     c2.609,0,4.725,2.116,4.725,4.725v47.244C303.244,206.168,301.129,208.284,298.52,208.284z M114.268,198.834h179.527V161.04     H114.268V198.834z"></path></g><g><path d="M241.827,161.04H128.441c-2.609,0-4.725-2.116-4.725-4.725V90.173c0-2.609,2.116-4.725,4.725-4.725h113.386     c2.609,0,4.725,2.115,4.725,4.725v66.142C246.551,158.924,244.436,161.04,241.827,161.04z M133.166,151.59h103.937V94.897     H133.166V151.59z"></path></g><g><path d="M430.803,264.978c-2.609,0-4.724-2.115-4.724-4.725V95.842h-85.04v60.473c0,2.609-2.114,4.725-4.724,4.725     c-2.61,0-4.725-2.116-4.725-4.725V91.118c0-2.609,2.114-4.725,4.725-4.725h94.487c2.61,0,4.725,2.116,4.725,4.725v169.135     C435.527,262.862,433.413,264.978,430.803,264.978z"></path></g><rect x="147.338" y="118.52" width="18.898" height="18.898"></rect><rect x="175.685" y="118.52" width="18.897" height="18.898"></rect><rect x="204.031" y="118.52" width="18.898" height="18.898"></rect><g><path d="M213.48,94.897c-2.609,0-4.725-2.115-4.725-4.724V52.378c0-2.609,2.115-4.725,4.725-4.725     c2.609,0,4.724,2.116,4.724,4.725v37.795C218.205,92.782,216.089,94.897,213.48,94.897z"></path></g><g><path d="M185.134,94.897c-2.609,0-4.724-2.115-4.724-4.724V42.929c0-2.609,2.115-4.725,4.724-4.725s4.725,2.116,4.725,4.725     v47.244C189.858,92.782,187.743,94.897,185.134,94.897z"></path></g><g><path d="M156.788,94.897c-2.609,0-4.725-2.115-4.725-4.724V61.827c0-2.609,2.115-4.724,4.725-4.724     c2.609,0,4.724,2.115,4.724,4.724v28.347C161.512,92.782,159.396,94.897,156.788,94.897z"></path></g><g><path d="M88.318,473.273c-1.717,0-3.429-0.096-5.135-0.289c-21.454-2.429-33.678-19.36-34.188-20.08     c-1.509-2.129-1.006-5.077,1.124-6.586c2.125-1.506,5.069-1.007,6.58,1.114c0.187,0.26,10.501,14.285,27.652,16.175     c12.964,1.423,26.74-4.278,40.943-16.958c1.946-1.739,4.934-1.568,6.67,0.377c1.738,1.946,1.569,4.934-0.377,6.671     C117.018,466.706,102.488,473.273,88.318,473.273z"></path></g><g><path d="M163.909,473.799c-1.717,0-3.43-0.096-5.136-0.29c-21.454-2.428-33.677-19.359-34.187-20.079     c-1.509-2.129-1.006-5.078,1.123-6.587c2.125-1.505,5.069-1.007,6.58,1.115c0.188,0.259,10.501,14.284,27.653,16.175     c12.963,1.423,26.739-4.278,40.942-16.958c1.947-1.74,4.934-1.57,6.671,0.377c1.738,1.946,1.569,4.933-0.377,6.671     C192.608,467.23,178.079,473.799,163.909,473.799z"></path></g><g><path d="M239.5,473.799c-1.717,0-3.429-0.096-5.135-0.29c-21.454-2.428-33.678-19.359-34.188-20.079     c-1.509-2.129-1.006-5.078,1.124-6.587c2.125-1.505,5.069-1.007,6.58,1.115c0.187,0.259,10.501,14.284,27.652,16.175     c12.963,1.423,26.739-4.278,40.943-16.958c1.945-1.74,4.933-1.569,6.67,0.377c1.739,1.946,1.569,4.933-0.377,6.671     C268.199,467.23,253.669,473.799,239.5,473.799z"></path></g><g><path d="M315.09,473.799c-1.717,0-3.429-0.096-5.135-0.29c-21.454-2.428-33.678-19.359-34.188-20.079     c-1.508-2.129-1.005-5.078,1.124-6.587c2.123-1.503,5.068-1.007,6.58,1.115c0.188,0.259,10.501,14.284,27.652,16.175     c12.969,1.431,26.74-4.278,40.943-16.958c1.944-1.74,4.934-1.569,6.67,0.377c1.738,1.946,1.568,4.933-0.377,6.671     C343.79,467.23,329.26,473.799,315.09,473.799z"></path></g><g><path d="M147.338,303.717H90.646c-2.609,0-4.724-2.115-4.724-4.725s2.115-4.725,4.724-4.725h56.693     c2.609,0,4.725,2.115,4.725,4.725S149.948,303.717,147.338,303.717z"></path></g><g><path d="M241.827,303.717h-56.693c-2.609,0-4.724-2.115-4.724-4.725s2.115-4.725,4.724-4.725h56.693     c2.609,0,4.725,2.115,4.725,4.725S244.436,303.717,241.827,303.717z"></path></g><g><path d="M336.315,303.717h-56.693c-2.609,0-4.725-2.115-4.725-4.725s2.115-4.725,4.725-4.725h56.693     c2.609,0,4.724,2.115,4.724,4.725S338.925,303.717,336.315,303.717z"></path></g><g><path d="M459.149,95.842H307.969c-2.609,0-4.725-2.115-4.725-4.724s2.115-4.725,4.725-4.725h151.181     c2.609,0,4.725,2.116,4.725,4.725S461.759,95.842,459.149,95.842z"></path></g><g><path d="M430.808,256.473c-1.674,0-3.294-0.891-4.152-2.463l-56.692-103.937c-1.003-1.84-0.675-4.121,0.807-5.603l56.693-56.693     c1.844-1.845,4.837-1.845,6.681,0c1.846,1.845,1.846,4.836,0,6.682l-54.193,54.193l55.001,100.834     c1.249,2.291,0.404,5.161-1.886,6.41C432.347,256.288,431.572,256.473,430.808,256.473z"></path></g></g></g></svg>