
<svg fill="#FFFFFF" x="0px" y="0px" viewBox="0 0 100 100" style="enable-background:new 0 0 100 100;" xml:space="preserve"><path d="M50,20c4.136,0,7.5-3.364,7.5-7.5S54.136,5,50,5s-7.5,3.364-7.5,7.5S45.864,20,50,20z M50,10c1.379,0,2.5,1.121,2.5,2.5  S51.379,15,50,15s-2.5-1.121-2.5-2.5S48.621,10,50,10z"></path><path d="M33.229,85.729C32.77,86.2,32.5,86.84,32.5,87.5s0.27,1.3,0.729,1.77C33.7,89.729,34.34,90,35,90s1.3-0.271,1.77-0.73  c0.46-0.47,0.73-1.109,0.73-1.77s-0.271-1.3-0.73-1.771C35.83,84.8,34.16,84.8,33.229,85.729z"></path><path d="M24.609,89.939c0.07,0,0.131,0.011,0.2,0.011c1.29,0,2.38-1,2.48-2.311c0.109-1.38-0.92-2.58-2.3-2.689  c-1.37-0.101-2.58,0.93-2.681,2.31C22.2,88.63,23.229,89.83,24.609,89.939z"></path><path d="M10.109,58.88c0.46,0.38,1.021,0.56,1.57,0.56c0.73,0,1.45-0.31,1.95-0.92c0.87-1.08,0.7-2.649-0.37-3.52  s-2.64-0.71-3.51,0.359c-0.01,0-0.01,0-0.01,0C8.87,56.439,9.04,58.01,10.109,58.88z"></path><path d="M19.899,53.6c0.28,0,0.561-0.04,0.841-0.14c1.3-0.47,1.979-1.9,1.51-3.2s-1.9-1.979-3.2-1.51s-1.98,1.899-1.51,3.2  C17.91,52.97,18.87,53.6,19.899,53.6z"></path><path d="M16.8,81.97c-1.13-0.81-2.69-0.55-3.49,0.57c-0.81,1.13-0.55,2.689,0.57,3.49c0.439,0.319,0.95,0.47,1.46,0.47  c0.78,0,1.54-0.36,2.03-1.04C18.17,84.34,17.92,82.77,16.8,81.97z"></path><path d="M8.03,73.859C6.76,74.41,6.18,75.88,6.72,77.149c0.41,0.94,1.33,1.511,2.3,1.511c0.33,0,0.67-0.07,0.99-0.21  c1.271-0.54,1.85-2.011,1.31-3.28C10.77,73.899,9.3,73.31,8.03,73.859z"></path><path d="M7.34,68.649c0.11,0.021,0.22,0.03,0.34,0.03c1.23,0,2.3-0.91,2.47-2.16c0.19-1.37-0.77-2.63-2.13-2.819  c-1.37-0.19-2.63,0.77-2.819,2.14C5.01,67.2,5.97,68.47,7.34,68.649z"></path><path d="M65,15c0.66,0,1.3-0.271,1.77-0.73c0.46-0.47,0.73-1.109,0.73-1.77s-0.271-1.3-0.73-1.771c-0.93-0.93-2.609-0.93-3.54,0  C62.77,11.2,62.5,11.84,62.5,12.5s0.27,1.3,0.729,1.77C63.7,14.729,64.34,15,65,15z"></path><path d="M75.01,15.05c0.06,0,0.13,0.01,0.19,0.01c1.29,0,2.39-1,2.489-2.31c0.11-1.38-0.93-2.58-2.3-2.69  c-1.38-0.1-2.58,0.931-2.68,2.3C72.6,13.74,73.63,14.939,75.01,15.05z"></path><path d="M80.109,51.399c0.28,0,0.561-0.05,0.841-0.149c1.3-0.47,1.97-1.9,1.51-3.2c-0.47-1.3-1.9-1.97-3.2-1.5v-0.01  c-1.3,0.47-1.97,1.899-1.51,3.2C78.12,50.76,79.08,51.399,80.109,51.399z"></path><path d="M86.74,45c0.46,0.38,1.02,0.56,1.569,0.56c0.73,0,1.45-0.319,1.94-0.92c0.01,0,0.01,0,0.01,0c0.86-1.08,0.7-2.649-0.37-3.52  s-2.649-0.71-3.52,0.359C85.5,42.56,85.67,44.13,86.74,45z"></path><path d="M88.68,24.83c0.41,0.95,1.33,1.51,2.3,1.51c0.33,0,0.67-0.06,0.99-0.2c1.271-0.55,1.85-2.02,1.311-3.28  c-0.551-1.27-2.021-1.859-3.29-1.31c-1.271,0.54-1.851,2.01-1.301,3.28H88.68z"></path><path d="M84.66,18.5c0.779,0,1.54-0.36,2.029-1.04c0.811-1.13,0.551-2.69-0.569-3.49c-1.12-0.81-2.69-0.55-3.49,0.57  s-0.55,2.689,0.58,3.49H83.2C83.64,18.35,84.149,18.5,84.66,18.5z"></path><path d="M89.85,33.479c-0.189,1.37,0.771,2.63,2.13,2.82c0.12,0.02,0.24,0.02,0.351,0.02c1.229,0,2.3-0.899,2.47-2.159  c0.19-1.37-0.77-2.63-2.13-2.811C91.3,31.16,90.04,32.12,89.85,33.479z"></path><polygon points="45.518,84.482 41.982,88.018 48.75,94.785 58.018,85.518 54.482,81.982 48.75,87.715 "></polygon><path d="M50,72.5c12.406,0,22.5-10.094,22.5-22.5S62.406,27.5,50,27.5S27.5,37.594,27.5,50S37.594,72.5,50,72.5z M50,32.5  c9.649,0,17.5,7.851,17.5,17.5S59.649,67.5,50,67.5S32.5,59.649,32.5,50S40.351,32.5,50,32.5z"></path><polygon points="57.5,47.5 52.5,47.5 52.5,37.5 47.5,37.5 47.5,52.5 57.5,52.5 "></polygon></svg>