
<svg viewBox="0 0 64 64" x="0px" y="0px"><title>traffic, light, lamp, driving</title><g data-name="Layer 2"><path d="M56.5,12.5h-36a1,1,0,0,0-1,1v5H10.38a1,1,0,0,0-1,1v30H7.5a1,1,0,0,0,0,2h8.63a1,1,0,0,0,0-2H11.38v-29H19.5v5a1,1,0,0,0,1,1h36a1,1,0,0,0,1-1v-12A1,1,0,0,0,56.5,12.5Zm-1,12h-34v-10h34Z"></path><path d="M38.5,22.5a3,3,0,1,0-3-3A3,3,0,0,0,38.5,22.5Zm0-4a1,1,0,1,1-1,1A1,1,0,0,1,38.5,18.5Z"></path><path d="M48.5,22.5a3,3,0,1,0-3-3A3,3,0,0,0,48.5,22.5Zm0-4a1,1,0,1,1-1,1A1,1,0,0,1,48.5,18.5Z"></path><path d="M28.5,22.5a3,3,0,1,0-3-3A3,3,0,0,0,28.5,22.5Zm0-4a1,1,0,1,1-1,1A1,1,0,0,1,28.5,18.5Z"></path></g></svg>