<svg fill="#FFFFFF" viewBox="0 0 64 64" x="0px" y="0px"><g><path d="M44,52H9a1,1,0,0,1-1-1V30l-3-.05a1,1,0,0,1-1-1V24a1,1,0,0,1,.55-.89L26,12.18a1,1,0,0,1,.91,0l18.52,9.4a1,1,0,0,1-.9,1.79L26.47,14.19,6,24.61V28L9,28a1,1,0,0,1,1,1V50H44a1,1,0,0,1,0,2Z"></path><path d="M59,52H44a1,1,0,0,1,0-2H59a1,1,0,0,1,0,2Z"></path><path d="M40,49H26a1,1,0,0,1-1-1V37a1,1,0,0,1,1-1H40a1,1,0,0,1,1,1V48A1,1,0,0,1,40,49ZM27,47H39V38H27Z"></path><path d="M57,49H43a1,1,0,0,1-1-1V37a1,1,0,0,1,1-1H57a1,1,0,0,1,1,1V48A1,1,0,0,1,57,49ZM44,47H56V38H44Z"></path><path d="M37,35H26a1,1,0,0,1-1-1V26a1,1,0,0,1,1-1H37a1,1,0,0,1,1,1v8A1,1,0,0,1,37,35ZM27,33h9V27H27Z"></path><path d="M31.5,29a1,1,0,0,1-1-1V26a1,1,0,0,1,2,0v2A1,1,0,0,1,31.5,29Z"></path><path d="M51,35H40a1,1,0,0,1-1-1V26a1,1,0,0,1,1-1H51a1,1,0,0,1,1,1v8A1,1,0,0,1,51,35ZM41,33h9V27H41Z"></path><path d="M45.5,29a1,1,0,0,1-1-1V26a1,1,0,0,1,2,0v2A1,1,0,0,1,45.5,29Z"></path><path d="M35,41H31a1,1,0,0,1-1-1V37a1,1,0,0,1,1-1h4a1,1,0,0,1,1,1v3A1,1,0,0,1,35,41Zm-3-2h2V38H32Z"></path><path d="M52,41H48a1,1,0,0,1-1-1V37a1,1,0,0,1,1-1h4a1,1,0,0,1,1,1v3A1,1,0,0,1,52,41Zm-3-2h2V38H49Z"></path></g></svg>