<svg fill="#FFFFFF" x="0px" y="0px" viewBox="0 0 64 64"><path d="M47.515,39.143l-15-9c-0.317-0.189-0.712-0.189-1.029,0l-15,9C16.184,39.323,16,39.648,16,40v21c0,0.553,0.448,1,1,1h5  c0.552,0,1-0.447,1-1V45h18v16c0,0.553,0.448,1,1,1h5c0.552,0,1-0.447,1-1V40C48,39.648,47.816,39.323,47.515,39.143z M46,60h-3V44  c0-0.553-0.448-1-1-1H22c-0.552,0-1,0.447-1,1v16h-3V40.566l14-8.4l14,8.4V60z"></path><path d="M38,54h-2v-5c0-0.553-0.448-1-1-1h-6c-0.552,0-1,0.447-1,1v5h-2c-0.552,0-1,0.447-1,1v6c0,0.553,0.448,1,1,1h12  c0.552,0,1-0.447,1-1v-6C39,54.447,38.552,54,38,54z M30,50h4v4h-4V50z M31,60h-4v-4h4V60z M37,60h-4v-4h4V60z"></path><path d="M32,2c-2.206,0-4,1.794-4,4s1.794,4,4,4s4-1.794,4-4S34.206,2,32,2z M32,8c-1.103,0-2-0.897-2-2s0.897-2,2-2s2,0.897,2,2  S33.103,8,32,8z"></path><path d="M58,12c-2.206,0-4,1.794-4,4s1.794,4,4,4s4-1.794,4-4S60.206,12,58,12z M58,18c-1.103,0-2-0.897-2-2s0.897-2,2-2  s2,0.897,2,2S59.103,18,58,18z"></path><path d="M6,20c2.206,0,4-1.794,4-4s-1.794-4-4-4s-4,1.794-4,4S3.794,20,6,20z M6,14c1.103,0,2,0.897,2,2s-0.897,2-2,2s-2-0.897-2-2  S4.897,14,6,14z"></path><path d="M58,33c-2.206,0-4,1.794-4,4s1.794,4,4,4s4-1.794,4-4S60.206,33,58,33z M58,39c-1.103,0-2-0.897-2-2s0.897-2,2-2  s2,0.897,2,2S59.103,39,58,39z"></path><path d="M6,33c-2.206,0-4,1.794-4,4s1.794,4,4,4s4-1.794,4-4S8.206,33,6,33z M6,39c-1.103,0-2-0.897-2-2s0.897-2,2-2s2,0.897,2,2  S7.103,39,6,39z"></path><path d="M33,25v-9l1.2,1.6l1.6-1.199l-3-4c-0.377-0.504-1.223-0.504-1.6,0l-3,4l1.6,1.199L31,16v9H33z"></path><path d="M52.858,20.524l-4.95,0.707l0.283,1.98l1.98-0.283l-6.364,6.364l1.414,1.414l6.364-6.364l-0.283,1.98l1.979,0.283  l0.707-4.95c0.045-0.312-0.06-0.626-0.283-0.849S53.17,20.479,52.858,20.524z"></path><path d="M17.778,30.707l1.414-1.414l-6.364-6.364l1.98,0.283l0.283-1.98l-4.95-0.707c-0.315-0.046-0.626,0.061-0.849,0.283  s-0.328,0.537-0.283,0.849l0.707,4.95l1.979-0.283l-0.283-1.98L17.778,30.707z"></path></svg>